<?xml version="1.0" encoding="UTF-8"?><svg xmlns="http://www.w3.org/2000/svg" xmlns:xlink="http://www.w3.org/1999/xlink" fill-opacity="1" color-rendering="auto" color-interpolation="auto" text-rendering="auto" stroke="black" stroke-linecap="square" width="703" stroke-miterlimit="10" shape-rendering="auto" stroke-opacity="1" fill="black" stroke-dasharray="none" font-weight="normal" stroke-width="1" height="509" font-family="'Dialog'" font-style="normal" stroke-linejoin="miter" font-size="12px" stroke-dashoffset="0" image-rendering="auto">
  <!--Generated by ySVG 2.6-->
  <defs id="genericDefs"/>
  <g>
    <defs id="defs1">
      <clipPath clipPathUnits="userSpaceOnUse" id="clipPath1">
        <path d="M0 0 L703 0 L703 509 L0 509 L0 0 Z"/>
      </clipPath>
      <clipPath clipPathUnits="userSpaceOnUse" id="clipPath2">
        <path d="M-120 62 L583 62 L583 571 L-120 571 L-120 62 Z"/>
      </clipPath>
      <clipPath clipPathUnits="userSpaceOnUse" id="clipPath3">
        <path d="M0 0 L0 100 L206 100 L206 0 Z"/>
      </clipPath>
      <clipPath clipPathUnits="userSpaceOnUse" id="clipPath4">
        <path d="M0 0 L0 153 L204 153 L204 0 Z"/>
      </clipPath>
    </defs>
    <g fill="white" text-rendering="geometricPrecision" shape-rendering="geometricPrecision" transform="matrix(1,0,0,1,120,-62)" stroke="white">
      <rect x="-104.875" y="77" clip-path="url(#clipPath2)" width="672.825" rx="4" ry="4" height="478.1752" stroke="none"/>
    </g>
    <g text-rendering="geometricPrecision" stroke-miterlimit="1.45" shape-rendering="geometricPrecision" transform="matrix(1,0,0,1,120,-62)" stroke-linecap="butt">
      <rect x="-104.875" y="77" clip-path="url(#clipPath2)" fill="none" width="672.825" rx="4" ry="4" height="478.1752"/>
      <text x="499.5524" font-size="20px" y="110.0959" clip-path="url(#clipPath2)" font-family="sans-serif" stroke="none" font-weight="bold" xml:space="preserve">Belief</text>
    </g>
    <g transform="matrix(1,0,0,1,120,-62)" fill-opacity="0.698" fill="rgb(204,255,204)" text-rendering="geometricPrecision" shape-rendering="geometricPrecision" stroke="rgb(204,255,204)" stroke-opacity="0.698">
      <rect x="-95.05" y="83.25" clip-path="url(#clipPath2)" width="544.925" rx="4" ry="4" height="466.85" stroke="none"/>
    </g>
    <g text-rendering="geometricPrecision" stroke-miterlimit="1.45" shape-rendering="geometricPrecision" transform="matrix(1,0,0,1,120,-62)" stroke-linecap="butt">
      <rect x="-95.05" y="83.25" clip-path="url(#clipPath2)" fill="none" width="544.925" rx="4" ry="4" height="466.85"/>
      <text x="329.8679" font-size="18px" y="291.7949" clip-path="url(#clipPath2)" font-family="sans-serif" stroke="none" font-weight="bold" xml:space="preserve">Belief in the</text>
      <text x="284.8503" font-size="18px" y="313.8467" clip-path="url(#clipPath2)" font-family="sans-serif" stroke="none" font-weight="bold" xml:space="preserve">Existence of God</text>
    </g>
    <g transform="matrix(1,0,0,1,120,-62)" fill-opacity="0.6" fill="rgb(255,255,153)" text-rendering="geometricPrecision" shape-rendering="geometricPrecision" stroke="rgb(255,255,153)" stroke-opacity="0.6">
      <rect x="-89.8" y="89.125" clip-path="url(#clipPath2)" width="334.75" rx="4" ry="4" height="156.5" stroke="none"/>
    </g>
    <g text-rendering="geometricPrecision" stroke-miterlimit="1.45" shape-rendering="geometricPrecision" transform="matrix(1,0,0,1,120,-62)" stroke-linecap="butt">
      <rect x="-89.8" y="89.125" clip-path="url(#clipPath2)" fill="none" width="334.75" rx="4" ry="4" height="156.5"/>
      <text x="-73.967" font-size="14px" y="112.7578" clip-path="url(#clipPath2)" font-family="sans-serif" stroke="none" font-weight="bold" xml:space="preserve">True Knowledgeof God</text>
      <text x="-73.967" font-size="14px" y="129.9091" clip-path="url(#clipPath2)" font-family="sans-serif" stroke="none" font-weight="bold" xml:space="preserve">&amp; His Ways</text>
    </g>
    <g text-rendering="geometricPrecision" stroke-miterlimit="1.45" shape-rendering="geometricPrecision" font-family="sans-serif" transform="matrix(1,0,0,1,120,-62) translate(-99,129)" stroke-linecap="butt">
      <circle r="2" clip-path="url(#clipPath3)" cx="43" cy="20" stroke="none"/>
      <text x="50" xml:space="preserve" y="23" clip-path="url(#clipPath3)" stroke="none">His Nature,</text>
      <circle r="2" clip-path="url(#clipPath3)" cx="43" cy="36" stroke="none"/>
      <text x="50" xml:space="preserve" y="39" clip-path="url(#clipPath3)" stroke="none">His Power,</text>
      <circle r="2" clip-path="url(#clipPath3)" cx="43" cy="52" stroke="none"/>
      <text x="50" xml:space="preserve" y="55" clip-path="url(#clipPath3)" stroke="none">His Character,</text>
      <circle r="2" clip-path="url(#clipPath3)" cx="43" cy="68" stroke="none"/>
      <text x="50" xml:space="preserve" y="71" clip-path="url(#clipPath3)" stroke="none">HIs Government &amp; Kingdom,</text>
      <circle r="2" clip-path="url(#clipPath3)" cx="43" cy="84" stroke="none"/>
      <text x="50" xml:space="preserve" y="87" clip-path="url(#clipPath3)" stroke="none">His Plans &amp; Purposes</text>
    </g>
    <g text-rendering="geometricPrecision" shape-rendering="geometricPrecision" transform="matrix(1,0,0,1,120,-62)">
      <rect x="464.55" y="274.625" clip-path="url(#clipPath2)" width="91.825" rx="4" ry="4" height="35" stroke="none"/>
      <rect stroke-linecap="butt" x="464.55" y="274.625" clip-path="url(#clipPath2)" fill="none" width="91.825" rx="4" ry="4" height="35" stroke-miterlimit="1.45"/>
    </g>
    <g stroke-linecap="butt" font-size="15px" transform="matrix(1,0,0,1,120,-62)" fill="white" text-rendering="geometricPrecision" font-family="sans-serif" shape-rendering="geometricPrecision" font-style="italic" stroke="white" font-weight="bold" stroke-miterlimit="1.45">
      <text x="480.8727" xml:space="preserve" y="298.0173" clip-path="url(#clipPath2)" stroke="none">Atheism</text>
    </g>
    <g transform="matrix(1,0,0,1,120,-62)" fill-opacity="0.498" fill="rgb(255,255,153)" text-rendering="geometricPrecision" shape-rendering="geometricPrecision" stroke="rgb(255,255,153)" stroke-opacity="0.498">
      <rect x="125.125" y="133.125" clip-path="url(#clipPath2)" width="324.75" rx="4" ry="4" height="94.5" stroke="none"/>
    </g>
    <g text-rendering="geometricPrecision" stroke-miterlimit="1.45" shape-rendering="geometricPrecision" transform="matrix(1,0,0,1,120,-62)" stroke-linecap="butt">
      <rect x="125.125" y="133.125" clip-path="url(#clipPath2)" fill="none" width="324.75" rx="4" ry="4" height="94.5"/>
      <text x="323.8125" font-size="16px" y="176.8594" clip-path="url(#clipPath2)" font-family="sans-serif" stroke="none" font-weight="bold" xml:space="preserve">True Reverence</text>
      <text x="343.4453" font-size="16px" y="196.4609" clip-path="url(#clipPath2)" font-family="sans-serif" stroke="none" font-weight="bold" xml:space="preserve">of God Alone</text>
    </g>
    <g fill="white" text-rendering="geometricPrecision" shape-rendering="geometricPrecision" transform="matrix(1,0,0,1,120,-62)" stroke="white">
      <rect x="133.65" y="151.125" clip-path="url(#clipPath2)" width="98.075" rx="4" ry="4" height="35" stroke="none"/>
    </g>
    <g text-rendering="geometricPrecision" stroke-miterlimit="1.45" shape-rendering="geometricPrecision" transform="matrix(1,0,0,1,120,-62)" stroke-linecap="butt">
      <rect x="133.65" y="151.125" clip-path="url(#clipPath2)" fill="none" width="98.075" rx="4" ry="4" height="35"/>
    </g>
    <g stroke-linecap="butt" font-size="15px" transform="matrix(1,0,0,1,120,-62)" text-rendering="geometricPrecision" font-family="sans-serif" shape-rendering="geometricPrecision" font-style="italic" font-weight="bold" stroke-miterlimit="1.45">
      <text x="137.2664" xml:space="preserve" y="174.5173" clip-path="url(#clipPath2)" stroke="none">Gospel Faith</text>
    </g>
    <g transform="matrix(1,0,0,1,120,-62)" fill-opacity="0.6" fill="rgb(128,0,0)" text-rendering="geometricPrecision" shape-rendering="geometricPrecision" stroke="rgb(128,0,0)" stroke-opacity="0.6">
      <rect x="-89.175" y="333.125" clip-path="url(#clipPath2)" width="334.125" rx="4" ry="4" height="210.725" stroke="none"/>
    </g>
    <g text-rendering="geometricPrecision" stroke-miterlimit="1.45" shape-rendering="geometricPrecision" transform="matrix(1,0,0,1,120,-62)" stroke-linecap="butt">
      <rect x="-89.175" y="333.125" clip-path="url(#clipPath2)" fill="none" width="334.125" rx="4" ry="4" height="210.725"/>
    </g>
    <g stroke-linecap="butt" font-size="16px" transform="matrix(1,0,0,1,120,-62)" fill="white" text-rendering="geometricPrecision" font-family="sans-serif" shape-rendering="geometricPrecision" stroke="white" font-weight="bold" stroke-miterlimit="1.45">
      <text x="-73.4852" xml:space="preserve" y="362.3818" clip-path="url(#clipPath2)" stroke="none">False Knowledgeof God</text>
      <text x="-73.4852" xml:space="preserve" y="381.9834" clip-path="url(#clipPath2)" stroke="none">&amp; His...</text>
    </g>
    <g stroke-linecap="butt" font-size="14px" transform="matrix(1,0,0,1,120,-62) translate(-101,384)" fill="white" text-rendering="geometricPrecision" font-family="sans-serif" shape-rendering="geometricPrecision" stroke="white" stroke-miterlimit="1.45">
      <circle r="2" clip-path="url(#clipPath4)" cx="43" cy="21" stroke="none"/>
      <text x="50" xml:space="preserve" y="25" clip-path="url(#clipPath4)" stroke="none">Ways,</text>
      <circle r="2" clip-path="url(#clipPath4)" cx="43" cy="40" stroke="none"/>
      <text x="50" xml:space="preserve" y="44" clip-path="url(#clipPath4)" stroke="none">Nature,</text>
      <circle r="2" clip-path="url(#clipPath4)" cx="43" cy="59" stroke="none"/>
      <text x="50" xml:space="preserve" y="63" clip-path="url(#clipPath4)" stroke="none">Power,</text>
      <circle r="2" clip-path="url(#clipPath4)" cx="43" cy="78" stroke="none"/>
      <text x="50" xml:space="preserve" y="82" clip-path="url(#clipPath4)" stroke="none">Character,</text>
      <circle r="2" clip-path="url(#clipPath4)" cx="43" cy="97" stroke="none"/>
      <text x="50" xml:space="preserve" y="101" clip-path="url(#clipPath4)" stroke="none">Government &amp; Kingdom,</text>
      <circle r="2" clip-path="url(#clipPath4)" cx="43" cy="116" stroke="none"/>
      <text x="50" xml:space="preserve" y="120" clip-path="url(#clipPath4)" stroke="none">Plans &amp; Purposes,</text>
      <circle r="2" clip-path="url(#clipPath4)" cx="43" cy="135" stroke="none"/>
      <text x="50" xml:space="preserve" y="139" clip-path="url(#clipPath4)" stroke="none">etc.</text>
    </g>
    <g text-rendering="geometricPrecision" shape-rendering="geometricPrecision" transform="matrix(1,0,0,1,120,-62)">
      <rect x="449.875" y="378.1125" clip-path="url(#clipPath2)" width="110.575" rx="4" ry="4" height="120.75" stroke="none"/>
      <rect stroke-linecap="butt" x="449.875" y="378.1125" clip-path="url(#clipPath2)" fill="none" width="110.575" rx="4" ry="4" height="120.75" stroke-miterlimit="1.45"/>
    </g>
    <g stroke-linecap="butt" font-size="16px" transform="matrix(1,0,0,1,120,-62)" fill="white" text-rendering="geometricPrecision" font-family="sans-serif" shape-rendering="geometricPrecision" stroke="white" font-weight="bold" stroke-miterlimit="1.45">
      <text x="453.9578" xml:space="preserve" y="400.1984" clip-path="url(#clipPath2)" stroke="none">Reverence of</text>
      <text x="469.1141" xml:space="preserve" y="419.8" clip-path="url(#clipPath2)" stroke="none">Other gods</text>
    </g>
    <g transform="matrix(1,0,0,1,120,-62)" fill-opacity="0.3961" fill="rgb(128,0,0)" text-rendering="geometricPrecision" shape-rendering="geometricPrecision" stroke="rgb(128,0,0)" stroke-opacity="0.3961">
      <rect x="143.95" y="378.1125" clip-path="url(#clipPath2)" width="305.925" rx="4" ry="4" height="120.75" stroke="none"/>
    </g>
    <g text-rendering="geometricPrecision" stroke-miterlimit="1.45" shape-rendering="geometricPrecision" transform="matrix(1,0,0,1,120,-62)" stroke-linecap="butt">
      <rect x="143.95" y="378.1125" clip-path="url(#clipPath2)" fill="none" width="305.925" rx="4" ry="4" height="120.75"/>
      <text x="258.0547" font-size="16px" y="400.1984" clip-path="url(#clipPath2)" font-family="sans-serif" stroke="none" font-weight="bold" xml:space="preserve">Reverence of God Alone</text>
    </g>
    <g fill="rgb(51,51,51)" text-rendering="geometricPrecision" shape-rendering="geometricPrecision" transform="matrix(1,0,0,1,120,-62)" stroke="rgb(51,51,51)">
      <rect x="408.65" y="426.9875" clip-path="url(#clipPath2)" width="82.6" rx="4" ry="4" height="35" stroke="none"/>
    </g>
    <g stroke-linecap="butt" transform="matrix(1,0,0,1,120,-62)" fill="white" text-rendering="geometricPrecision" shape-rendering="geometricPrecision" stroke="white" stroke-miterlimit="1.45">
      <rect x="408.65" y="426.9875" clip-path="url(#clipPath2)" fill="none" width="82.6" rx="4" ry="4" height="35"/>
    </g>
    <g stroke-linecap="butt" font-size="15px" transform="matrix(1,0,0,1,120,-62)" fill="white" text-rendering="geometricPrecision" font-family="sans-serif" shape-rendering="geometricPrecision" font-style="italic" stroke="white" font-weight="bold" stroke-miterlimit="1.45">
      <text x="422.8614" xml:space="preserve" y="450.3798" clip-path="url(#clipPath2)" stroke="none">Idolatry</text>
    </g>
    <g fill="silver" text-rendering="geometricPrecision" shape-rendering="geometricPrecision" transform="matrix(1,0,0,1,120,-62)" stroke="silver">
      <rect x="173.7" y="415.9875" clip-path="url(#clipPath2)" width="205.125" rx="4" ry="4" height="57" stroke="none"/>
    </g>
    <g text-rendering="geometricPrecision" stroke-miterlimit="1.45" shape-rendering="geometricPrecision" transform="matrix(1,0,0,1,120,-62)" stroke-linecap="butt">
      <rect x="173.7" y="415.9875" clip-path="url(#clipPath2)" fill="none" width="205.125" rx="4" ry="4" height="57"/>
    </g>
    <g stroke-linecap="butt" font-size="15px" transform="matrix(1,0,0,1,120,-62)" text-rendering="geometricPrecision" font-family="sans-serif" shape-rendering="geometricPrecision" font-style="italic" font-weight="bold" stroke-miterlimit="1.45">
      <text x="207.9275" xml:space="preserve" y="441.1916" clip-path="url(#clipPath2)" stroke="none">Other Monotheistic</text>
      <text x="242.5088" xml:space="preserve" y="459.5681" clip-path="url(#clipPath2)" stroke="none">Religions</text>
    </g>
  </g>
</svg>
