<?xml version="1.0" encoding="UTF-8"?><svg xmlns="http://www.w3.org/2000/svg" xmlns:xlink="http://www.w3.org/1999/xlink" fill-opacity="1" color-rendering="auto" color-interpolation="auto" text-rendering="auto" stroke="black" stroke-linecap="square" width="911" stroke-miterlimit="10" shape-rendering="auto" stroke-opacity="1" fill="black" stroke-dasharray="none" font-weight="normal" stroke-width="1" height="635" font-family="'Dialog'" font-style="normal" stroke-linejoin="miter" font-size="12px" stroke-dashoffset="0" image-rendering="auto">
  <!--Generated by ySVG 2.6-->
  <defs id="genericDefs"/>
  <g>
    <defs id="defs1">
      <clipPath clipPathUnits="userSpaceOnUse" id="clipPath1">
        <path d="M0 0 L911 0 L911 635 L0 635 L0 0 Z"/>
      </clipPath>
      <clipPath clipPathUnits="userSpaceOnUse" id="clipPath2">
        <path d="M957 44 L1255.5165 44 L1255.5165 252.0768 L957 252.0768 L957 44 Z"/>
      </clipPath>
    </defs>
    <g fill="rgb(240,240,240)" text-rendering="geometricPrecision" shape-rendering="geometricPrecision" transform="matrix(3.0518,0,0,3.0518,-2920.5322,-134.2773)" stroke="rgb(240,240,240)">
      <rect x="1032.0452" y="47.713" clip-path="url(#clipPath2)" width="131.2432" rx="4" ry="4" height="30" stroke="none"/>
    </g>
    <g text-rendering="geometricPrecision" stroke-miterlimit="1.45" shape-rendering="geometricPrecision" transform="matrix(3.0518,0,0,3.0518,-2920.5322,-134.2773)" stroke-linecap="butt">
      <rect x="1032.0452" y="47.713" clip-path="url(#clipPath2)" fill="none" width="131.2432" rx="4" ry="4" height="30"/>
      <text x="1049.3298" y="67.4268" clip-path="url(#clipPath2)" font-family="sans-serif" stroke="none" font-weight="bold" xml:space="preserve">Angel of Yahweh</text>
    </g>
    <g fill="rgb(240,240,240)" text-rendering="geometricPrecision" shape-rendering="geometricPrecision" transform="matrix(3.0518,0,0,3.0518,-2920.5322,-134.2773)" stroke="rgb(240,240,240)">
      <rect x="1035.0066" y="122.3165" clip-path="url(#clipPath2)" width="59.3012" rx="4" ry="4" height="27.0509" stroke="none"/>
    </g>
    <g text-rendering="geometricPrecision" stroke-miterlimit="1.45" shape-rendering="geometricPrecision" transform="matrix(3.0518,0,0,3.0518,-2920.5322,-134.2773)" stroke-linecap="butt">
      <rect x="1035.0066" y="122.3165" clip-path="url(#clipPath2)" fill="none" width="59.3012" rx="4" ry="4" height="27.0509"/>
      <text x="1037.2998" y="140.5558" clip-path="url(#clipPath2)" font-family="sans-serif" stroke="none" font-weight="bold" xml:space="preserve">"To Us..."</text>
    </g>
    <g fill="rgb(255,226,252)" text-rendering="geometricPrecision" shape-rendering="geometricPrecision" transform="matrix(3.0518,0,0,3.0518,-2920.5322,-134.2773)" stroke="rgb(255,226,252)">
      <rect x="1105.7991" y="122.3165" clip-path="url(#clipPath2)" width="60.4507" rx="4" ry="4" height="27.0509" stroke="none"/>
    </g>
    <g stroke-linecap="butt" transform="matrix(3.0518,0,0,3.0518,-2920.5322,-134.2773)" fill="maroon" text-rendering="geometricPrecision" shape-rendering="geometricPrecision" stroke="maroon" stroke-miterlimit="1.45">
      <rect x="1105.7991" y="122.3165" clip-path="url(#clipPath2)" fill="none" width="60.4507" rx="4" ry="4" height="27.0509"/>
      <text x="1116.6943" y="133.2052" clip-path="url(#clipPath2)" font-family="sans-serif" stroke="none" font-weight="bold" xml:space="preserve">Mighty</text>
      <text x="1122.3574" y="147.9064" clip-path="url(#clipPath2)" font-family="sans-serif" stroke="none" font-weight="bold" xml:space="preserve">GOD</text>
    </g>
    <g fill="rgb(255,226,252)" text-rendering="geometricPrecision" shape-rendering="geometricPrecision" transform="matrix(3.0518,0,0,3.0518,-2920.5322,-134.2773)" stroke="rgb(255,226,252)">
      <rect x="1100.2306" y="182.3165" clip-path="url(#clipPath2)" width="66.0192" rx="4" ry="4" height="27.0509" stroke="none"/>
    </g>
    <g stroke-linecap="butt" transform="matrix(3.0518,0,0,3.0518,-2920.5322,-134.2773)" fill="maroon" text-rendering="geometricPrecision" shape-rendering="geometricPrecision" stroke="maroon" stroke-miterlimit="1.45">
      <rect x="1100.2306" y="182.3165" clip-path="url(#clipPath2)" fill="none" width="66.0192" rx="4" ry="4" height="27.0509"/>
      <text x="1119.5732" y="200.5558" clip-path="url(#clipPath2)" font-family="sans-serif" stroke="none" font-weight="bold" xml:space="preserve">GOD</text>
    </g>
    <g fill="rgb(240,240,240)" text-rendering="geometricPrecision" shape-rendering="geometricPrecision" transform="matrix(3.0518,0,0,3.0518,-2920.5322,-134.2773)" stroke="rgb(240,240,240)">
      <rect x="1035.0066" y="182.3165" clip-path="url(#clipPath2)" width="65.224" rx="4" ry="4" height="27.0509" stroke="none"/>
    </g>
    <g text-rendering="geometricPrecision" stroke-miterlimit="1.45" shape-rendering="geometricPrecision" transform="matrix(3.0518,0,0,3.0518,-2920.5322,-134.2773)" stroke-linecap="butt">
      <rect x="1035.0066" y="182.3165" clip-path="url(#clipPath2)" fill="none" width="65.224" rx="4" ry="4" height="27.0509"/>
      <text x="1045.2886" y="200.5558" clip-path="url(#clipPath2)" font-family="sans-serif" stroke="none" font-weight="bold" xml:space="preserve">With Us</text>
    </g>
    <g fill="rgb(255,226,252)" text-rendering="geometricPrecision" shape-rendering="geometricPrecision" transform="matrix(3.0518,0,0,3.0518,-2920.5322,-134.2773)" stroke="rgb(255,226,252)">
      <rect x="1100.2306" y="220.7731" clip-path="url(#clipPath2)" width="66.0192" rx="4" ry="4" height="30" stroke="none"/>
    </g>
    <g stroke-linecap="butt" transform="matrix(3.0518,0,0,3.0518,-2920.5322,-134.2773)" fill="maroon" text-rendering="geometricPrecision" shape-rendering="geometricPrecision" stroke="maroon" stroke-miterlimit="1.45">
      <rect x="1100.2306" y="220.7731" clip-path="url(#clipPath2)" fill="none" width="66.0192" rx="4" ry="4" height="30"/>
      <text x="1127.5713" y="240.487" clip-path="url(#clipPath2)" font-family="sans-serif" stroke="none" font-weight="bold" xml:space="preserve">El</text>
    </g>
    <g fill="rgb(240,240,240)" text-rendering="geometricPrecision" shape-rendering="geometricPrecision" transform="matrix(3.0518,0,0,3.0518,-2920.5322,-134.2773)" stroke="rgb(240,240,240)">
      <rect x="1035.0066" y="220.7731" clip-path="url(#clipPath2)" width="65.224" rx="4" ry="4" height="30" stroke="none"/>
    </g>
    <g text-rendering="geometricPrecision" stroke-miterlimit="1.45" shape-rendering="geometricPrecision" transform="matrix(3.0518,0,0,3.0518,-2920.5322,-134.2773)" stroke-linecap="butt">
      <rect x="1035.0066" y="220.7731" clip-path="url(#clipPath2)" fill="none" width="65.224" rx="4" ry="4" height="30"/>
      <text x="1040.2817" y="240.487" clip-path="url(#clipPath2)" font-family="sans-serif" stroke="none" font-weight="bold" xml:space="preserve">Emmanu-</text>
    </g>
    <g fill="rgb(255,226,252)" text-rendering="geometricPrecision" shape-rendering="geometricPrecision" transform="matrix(3.0518,0,0,3.0518,-2920.5322,-134.2773)" stroke="rgb(255,226,252)">
      <rect x="1100.2306" y="179.3674" clip-path="url(#clipPath2)" width="66.0192" rx="4" ry="4" height="30" stroke="none"/>
    </g>
    <g stroke-linecap="butt" transform="matrix(3.0518,0,0,3.0518,-2920.5322,-134.2773)" fill="maroon" text-rendering="geometricPrecision" shape-rendering="geometricPrecision" stroke="maroon" stroke-miterlimit="1.45">
      <rect x="1100.2306" y="179.3674" clip-path="url(#clipPath2)" fill="none" width="66.0192" rx="4" ry="4" height="30"/>
      <text x="1119.5732" y="199.0813" clip-path="url(#clipPath2)" font-family="sans-serif" stroke="none" font-weight="bold" xml:space="preserve">GOD</text>
    </g>
    <g fill="rgb(240,240,240)" text-rendering="geometricPrecision" shape-rendering="geometricPrecision" transform="matrix(3.0518,0,0,3.0518,-2920.5322,-134.2773)" stroke="rgb(240,240,240)">
      <rect x="1035.0066" y="179.3674" clip-path="url(#clipPath2)" width="65.224" rx="4" ry="4" height="30" stroke="none"/>
    </g>
    <g text-rendering="geometricPrecision" stroke-miterlimit="1.45" shape-rendering="geometricPrecision" transform="matrix(3.0518,0,0,3.0518,-2920.5322,-134.2773)" stroke-linecap="butt">
      <rect x="1035.0066" y="179.3674" clip-path="url(#clipPath2)" fill="none" width="65.224" rx="4" ry="4" height="30"/>
      <text x="1045.2886" y="199.0813" clip-path="url(#clipPath2)" font-family="sans-serif" stroke="none" font-weight="bold" xml:space="preserve">With Us</text>
    </g>
    <g fill="rgb(255,226,252)" text-rendering="geometricPrecision" shape-rendering="geometricPrecision" transform="matrix(3.0518,0,0,3.0518,-2920.5322,-134.2773)" stroke="rgb(255,226,252)">
      <rect x="1100.2306" y="220.7731" clip-path="url(#clipPath2)" width="66.0192" rx="4" ry="4" height="30" stroke="none"/>
    </g>
    <g stroke-linecap="butt" transform="matrix(3.0518,0,0,3.0518,-2920.5322,-134.2773)" fill="maroon" text-rendering="geometricPrecision" shape-rendering="geometricPrecision" stroke="maroon" stroke-miterlimit="1.45">
      <rect x="1100.2306" y="220.7731" clip-path="url(#clipPath2)" fill="none" width="66.0192" rx="4" ry="4" height="30"/>
      <text x="1127.5713" y="240.487" clip-path="url(#clipPath2)" font-family="sans-serif" stroke="none" font-weight="bold" xml:space="preserve">El</text>
    </g>
    <g fill="rgb(240,240,240)" text-rendering="geometricPrecision" shape-rendering="geometricPrecision" transform="matrix(3.0518,0,0,3.0518,-2920.5322,-134.2773)" stroke="rgb(240,240,240)">
      <rect x="1035.0066" y="220.7731" clip-path="url(#clipPath2)" width="65.224" rx="4" ry="4" height="30" stroke="none"/>
    </g>
    <g text-rendering="geometricPrecision" stroke-miterlimit="1.45" shape-rendering="geometricPrecision" transform="matrix(3.0518,0,0,3.0518,-2920.5322,-134.2773)" stroke-linecap="butt">
      <rect x="1035.0066" y="220.7731" clip-path="url(#clipPath2)" fill="none" width="65.224" rx="4" ry="4" height="30"/>
      <text x="1040.2817" y="240.487" clip-path="url(#clipPath2)" font-family="sans-serif" stroke="none" font-weight="bold" xml:space="preserve">Emmanu-</text>
    </g>
    <g fill="rgb(240,240,240)" text-rendering="geometricPrecision" shape-rendering="geometricPrecision" transform="matrix(3.0518,0,0,3.0518,-2920.5322,-134.2773)" stroke="rgb(240,240,240)">
      <rect x="1032.0452" y="119.3674" clip-path="url(#clipPath2)" width="65.224" rx="4" ry="4" height="30" stroke="none"/>
    </g>
    <g text-rendering="geometricPrecision" stroke-miterlimit="1.45" shape-rendering="geometricPrecision" transform="matrix(3.0518,0,0,3.0518,-2920.5322,-134.2773)" stroke-linecap="butt">
      <rect x="1032.0452" y="119.3674" clip-path="url(#clipPath2)" fill="none" width="65.224" rx="4" ry="4" height="30"/>
      <text x="1037.2998" y="139.0813" clip-path="url(#clipPath2)" font-family="sans-serif" stroke="none" font-weight="bold" xml:space="preserve">"To Us..."</text>
    </g>
    <g fill="rgb(255,226,252)" text-rendering="geometricPrecision" shape-rendering="geometricPrecision" transform="matrix(3.0518,0,0,3.0518,-2920.5322,-134.2773)" stroke="rgb(255,226,252)">
      <rect x="1103.0149" y="119.3674" clip-path="url(#clipPath2)" width="66.0192" rx="4" ry="4" height="30" stroke="none"/>
    </g>
    <g stroke-linecap="butt" transform="matrix(3.0518,0,0,3.0518,-2920.5322,-134.2773)" fill="maroon" text-rendering="geometricPrecision" shape-rendering="geometricPrecision" stroke="maroon" stroke-miterlimit="1.45">
      <rect x="1103.0149" y="119.3674" clip-path="url(#clipPath2)" fill="none" width="66.0192" rx="4" ry="4" height="30"/>
      <text x="1116.6943" y="131.7307" clip-path="url(#clipPath2)" font-family="sans-serif" stroke="none" font-weight="bold" xml:space="preserve">Mighty</text>
      <text x="1122.3574" y="146.4318" clip-path="url(#clipPath2)" font-family="sans-serif" stroke="none" font-weight="bold" xml:space="preserve">GOD</text>
      <path fill="none" d="M1096.5646 77.7108 L1096.5646 80.9053 L1064.6572 93.6952 L1064.6572 108.3007" stroke-width="7" clip-path="url(#clipPath2)" stroke="white"/>
      <path fill="white" d="M1064.6572 122.3007 L1073.4072 101.3007 L1064.6572 106.5507 L1055.9072 101.3007 Z" stroke-width="7" clip-path="url(#clipPath2)" stroke="none"/>
      <path fill="none" d="M1097.6667 77.7351 L1097.6667 80.4758 L1137.0311 92.9978 L1136.6708 108.3315" stroke-width="7" clip-path="url(#clipPath2)" stroke="white"/>
      <path fill="white" d="M1136.3419 122.3276 L1145.5828 101.539 L1136.7119 106.582 L1128.0876 101.1279 Z" stroke-width="7" clip-path="url(#clipPath2)" stroke="none"/>
      <path fill="none" d="M1136.0244 149.3494 L1136.0244 152.4266 L1133.2402 161.5445 L1133.2402 168.344" stroke-width="7" clip-path="url(#clipPath2)" stroke="white"/>
      <path fill="white" d="M1133.2402 182.344 L1141.9902 161.344 L1133.2402 166.594 L1124.4902 161.344 Z" stroke-width="7" clip-path="url(#clipPath2)" stroke="none"/>
      <path fill="none" d="M1064.6572 149.3955 L1064.6572 151.5065 L1067.6187 161.5445 L1067.6187 168.344" stroke-width="7" clip-path="url(#clipPath2)" stroke="white"/>
      <path fill="white" d="M1067.6187 182.344 L1076.3687 161.344 L1067.6187 166.594 L1058.8687 161.344 Z" stroke-width="7" clip-path="url(#clipPath2)" stroke="none"/>
      <path fill="none" d="M1133.2402 209.3733 L1133.2402 220.7943" stroke-width="7" clip-path="url(#clipPath2)" stroke="white"/>
      <path fill="none" d="M1067.6187 209.3733 L1067.6187 220.7943" stroke-width="7" clip-path="url(#clipPath2)" stroke="white"/>
      <path fill="none" d="M1133.2402 209.3689 L1133.2402 220.7918" stroke-width="4" clip-path="url(#clipPath2)"/>
      <path fill="none" d="M1067.6187 209.3689 L1067.6187 220.7918" stroke-width="4" clip-path="url(#clipPath2)" stroke="black"/>
      <path fill="none" d="M1064.6572 149.3976 L1064.6572 151.5065 L1067.6187 161.5445 L1067.6187 168.3984" stroke-width="4" clip-path="url(#clipPath2)" stroke="black"/>
      <path fill="black" d="M1067.6187 179.3984 L1074.4937 162.8984 L1067.6187 167.0234 L1060.7437 162.8984 Z" stroke-width="4" clip-path="url(#clipPath2)" stroke="none"/>
      <path fill="none" d="M1136.0244 149.358 L1136.0244 152.4266 L1133.2402 161.5445 L1133.2402 168.3984" stroke-width="4" clip-path="url(#clipPath2)"/>
      <path d="M1133.2402 179.3984 L1140.1152 162.8984 L1133.2402 167.0234 L1126.3652 162.8984 Z" stroke-width="4" clip-path="url(#clipPath2)" stroke="none"/>
    </g>
    <g fill="white" text-rendering="geometricPrecision" shape-rendering="geometricPrecision" transform="matrix(3.0518,0,0,3.0518,-2920.5322,-134.2773)" stroke="white">
      <rect x="1029.1724" y="47.713" clip-path="url(#clipPath2)" width="136.9889" rx="4" ry="4" height="30" stroke="none"/>
    </g>
    <g stroke-linecap="butt" transform="matrix(3.0518,0,0,3.0518,-2920.5322,-134.2773)" fill="rgb(51,51,153)" text-rendering="geometricPrecision" shape-rendering="geometricPrecision" stroke="rgb(51,51,153)" stroke-miterlimit="1.45">
      <rect x="1029.1724" y="47.713" clip-path="url(#clipPath2)" fill="none" width="136.9889" rx="4" ry="4" height="30"/>
      <text x="1037.2456" font-size="15px" y="68.6053" clip-path="url(#clipPath2)" font-family="sans-serif" stroke="none" font-weight="bold" xml:space="preserve">Angel of Yahweh</text>
      <path fill="none" d="M1097.6667 77.743 L1097.6667 80.9053 L1064.6572 93.6952 L1064.6572 108.3934" stroke-width="4" clip-path="url(#clipPath2)"/>
      <path d="M1064.6572 119.3934 L1071.5322 102.8934 L1064.6572 107.0184 L1057.7822 102.8934 Z" stroke-width="4" clip-path="url(#clipPath2)" stroke="none"/>
      <path fill="none" d="M1097.6667 77.7351 L1097.6667 80.4758 L1136.0244 92.9978 L1136.0244 108.379" stroke-width="4" clip-path="url(#clipPath2)"/>
      <path d="M1136.0244 119.379 L1142.8994 102.879 L1136.0244 107.004 L1129.1494 102.879 Z" stroke-width="4" clip-path="url(#clipPath2)" stroke="none"/>
    </g>
  </g>
</svg>
