<?xml version="1.0" encoding="UTF-8"?><svg xmlns="http://www.w3.org/2000/svg" xmlns:xlink="http://www.w3.org/1999/xlink" fill-opacity="1" color-rendering="auto" color-interpolation="auto" text-rendering="auto" stroke="black" stroke-linecap="square" width="911" stroke-miterlimit="10" shape-rendering="auto" stroke-opacity="1" fill="black" stroke-dasharray="none" font-weight="normal" stroke-width="1" height="635" font-family="'Dialog'" font-style="normal" stroke-linejoin="miter" font-size="12px" stroke-dashoffset="0" image-rendering="auto">
  <!--Generated by ySVG 2.6-->
  <defs id="genericDefs"/>
  <g>
    <defs id="defs1">
      <clipPath clipPathUnits="userSpaceOnUse" id="clipPath1">
        <path d="M0 0 L911 0 L911 635 L0 635 L0 0 Z"/>
      </clipPath>
      <clipPath clipPathUnits="userSpaceOnUse" id="clipPath2">
        <path d="M686 -329 L1059.1456 -329 L1059.1456 -68.904 L686 -68.904 L686 -329 Z"/>
      </clipPath>
    </defs>
    <g fill="rgb(240,240,240)" text-rendering="geometricPrecision" shape-rendering="geometricPrecision" transform="matrix(2.4414,0,0,2.4414,-1674.8047,803.2227)" stroke="rgb(240,240,240)">
      <rect x="723.6727" y="-299.3557" clip-path="url(#clipPath2)" width="131.2432" rx="4" ry="4" height="47.968" stroke="none"/>
    </g>
    <g text-rendering="geometricPrecision" stroke-miterlimit="1.45" shape-rendering="geometricPrecision" transform="matrix(2.4414,0,0,2.4414,-1674.8047,803.2227)" stroke-linecap="butt">
      <rect x="723.6727" y="-299.3557" clip-path="url(#clipPath2)" fill="none" width="131.2432" rx="4" ry="4" height="47.968"/>
      <text x="740.9574" y="-270.6578" clip-path="url(#clipPath2)" font-family="sans-serif" stroke="none" font-weight="bold" xml:space="preserve">Angel of Yahweh</text>
    </g>
    <g fill="rgb(240,240,240)" text-rendering="geometricPrecision" shape-rendering="geometricPrecision" transform="matrix(2.4414,0,0,2.4414,-1674.8047,803.2227)" stroke="rgb(240,240,240)">
      <rect x="726.6341" y="-221.3877" clip-path="url(#clipPath2)" width="59.3012" rx="4" ry="4" height="27.0509" stroke="none"/>
    </g>
    <g text-rendering="geometricPrecision" stroke-miterlimit="1.45" shape-rendering="geometricPrecision" transform="matrix(2.4414,0,0,2.4414,-1674.8047,803.2227)" stroke-linecap="butt">
      <rect x="726.6341" y="-221.3877" clip-path="url(#clipPath2)" fill="none" width="59.3012" rx="4" ry="4" height="27.0509"/>
      <text x="728.9273" y="-203.1484" clip-path="url(#clipPath2)" font-family="sans-serif" stroke="none" font-weight="bold" xml:space="preserve">"To Us..."</text>
    </g>
    <g fill="rgb(255,226,252)" text-rendering="geometricPrecision" shape-rendering="geometricPrecision" transform="matrix(2.4414,0,0,2.4414,-1674.8047,803.2227)" stroke="rgb(255,226,252)">
      <rect x="797.4267" y="-221.3877" clip-path="url(#clipPath2)" width="60.4507" rx="4" ry="4" height="27.0509" stroke="none"/>
    </g>
    <g stroke-linecap="butt" transform="matrix(2.4414,0,0,2.4414,-1674.8047,803.2227)" fill="maroon" text-rendering="geometricPrecision" shape-rendering="geometricPrecision" stroke="maroon" stroke-miterlimit="1.45">
      <rect x="797.4267" y="-221.3877" clip-path="url(#clipPath2)" fill="none" width="60.4507" rx="4" ry="4" height="27.0509"/>
      <text x="808.3219" y="-210.499" clip-path="url(#clipPath2)" font-family="sans-serif" stroke="none" font-weight="bold" xml:space="preserve">Mighty</text>
      <text x="813.985" y="-195.7978" clip-path="url(#clipPath2)" font-family="sans-serif" stroke="none" font-weight="bold" xml:space="preserve">GOD</text>
    </g>
    <g fill="rgb(255,226,252)" text-rendering="geometricPrecision" shape-rendering="geometricPrecision" transform="matrix(2.4414,0,0,2.4414,-1674.8047,803.2227)" stroke="rgb(255,226,252)">
      <rect x="791.8581" y="-161.3877" clip-path="url(#clipPath2)" width="66.0192" rx="4" ry="4" height="27.0509" stroke="none"/>
    </g>
    <g stroke-linecap="butt" transform="matrix(2.4414,0,0,2.4414,-1674.8047,803.2227)" fill="maroon" text-rendering="geometricPrecision" shape-rendering="geometricPrecision" stroke="maroon" stroke-miterlimit="1.45">
      <rect x="791.8581" y="-161.3877" clip-path="url(#clipPath2)" fill="none" width="66.0192" rx="4" ry="4" height="27.0509"/>
      <text x="811.2007" y="-143.1484" clip-path="url(#clipPath2)" font-family="sans-serif" stroke="none" font-weight="bold" xml:space="preserve">GOD</text>
    </g>
    <g fill="rgb(240,240,240)" text-rendering="geometricPrecision" shape-rendering="geometricPrecision" transform="matrix(2.4414,0,0,2.4414,-1674.8047,803.2227)" stroke="rgb(240,240,240)">
      <rect x="726.6341" y="-161.3877" clip-path="url(#clipPath2)" width="65.224" rx="4" ry="4" height="27.0509" stroke="none"/>
    </g>
    <g text-rendering="geometricPrecision" stroke-miterlimit="1.45" shape-rendering="geometricPrecision" transform="matrix(2.4414,0,0,2.4414,-1674.8047,803.2227)" stroke-linecap="butt">
      <rect x="726.6341" y="-161.3877" clip-path="url(#clipPath2)" fill="none" width="65.224" rx="4" ry="4" height="27.0509"/>
      <text x="736.9161" y="-143.1484" clip-path="url(#clipPath2)" font-family="sans-serif" stroke="none" font-weight="bold" xml:space="preserve">With Us</text>
    </g>
    <g fill="rgb(255,226,252)" text-rendering="geometricPrecision" shape-rendering="geometricPrecision" transform="matrix(2.4414,0,0,2.4414,-1674.8047,803.2227)" stroke="rgb(255,226,252)">
      <rect x="791.8581" y="-122.9311" clip-path="url(#clipPath2)" width="66.0192" rx="4" ry="4" height="30" stroke="none"/>
    </g>
    <g stroke-linecap="butt" transform="matrix(2.4414,0,0,2.4414,-1674.8047,803.2227)" fill="maroon" text-rendering="geometricPrecision" shape-rendering="geometricPrecision" stroke="maroon" stroke-miterlimit="1.45">
      <rect x="791.8581" y="-122.9311" clip-path="url(#clipPath2)" fill="none" width="66.0192" rx="4" ry="4" height="30"/>
      <text x="819.1988" y="-103.2172" clip-path="url(#clipPath2)" font-family="sans-serif" stroke="none" font-weight="bold" xml:space="preserve">El</text>
    </g>
    <g fill="rgb(240,240,240)" text-rendering="geometricPrecision" shape-rendering="geometricPrecision" transform="matrix(2.4414,0,0,2.4414,-1674.8047,803.2227)" stroke="rgb(240,240,240)">
      <rect x="726.6341" y="-122.9311" clip-path="url(#clipPath2)" width="65.224" rx="4" ry="4" height="30" stroke="none"/>
    </g>
    <g text-rendering="geometricPrecision" stroke-miterlimit="1.45" shape-rendering="geometricPrecision" transform="matrix(2.4414,0,0,2.4414,-1674.8047,803.2227)" stroke-linecap="butt">
      <rect x="726.6341" y="-122.9311" clip-path="url(#clipPath2)" fill="none" width="65.224" rx="4" ry="4" height="30"/>
      <text x="731.9092" y="-103.2172" clip-path="url(#clipPath2)" font-family="sans-serif" stroke="none" font-weight="bold" xml:space="preserve">Emmanu-</text>
    </g>
    <g fill="rgb(255,226,252)" text-rendering="geometricPrecision" shape-rendering="geometricPrecision" transform="matrix(2.4414,0,0,2.4414,-1674.8047,803.2227)" stroke="rgb(255,226,252)">
      <rect x="791.8581" y="-164.3368" clip-path="url(#clipPath2)" width="66.0192" rx="4" ry="4" height="30" stroke="none"/>
    </g>
    <g stroke-linecap="butt" transform="matrix(2.4414,0,0,2.4414,-1674.8047,803.2227)" fill="maroon" text-rendering="geometricPrecision" shape-rendering="geometricPrecision" stroke="maroon" stroke-miterlimit="1.45">
      <rect x="791.8581" y="-164.3368" clip-path="url(#clipPath2)" fill="none" width="66.0192" rx="4" ry="4" height="30"/>
      <text x="811.2007" y="-144.623" clip-path="url(#clipPath2)" font-family="sans-serif" stroke="none" font-weight="bold" xml:space="preserve">GOD</text>
    </g>
    <g fill="rgb(240,240,240)" text-rendering="geometricPrecision" shape-rendering="geometricPrecision" transform="matrix(2.4414,0,0,2.4414,-1674.8047,803.2227)" stroke="rgb(240,240,240)">
      <rect x="726.6341" y="-164.3368" clip-path="url(#clipPath2)" width="65.224" rx="4" ry="4" height="30" stroke="none"/>
    </g>
    <g text-rendering="geometricPrecision" stroke-miterlimit="1.45" shape-rendering="geometricPrecision" transform="matrix(2.4414,0,0,2.4414,-1674.8047,803.2227)" stroke-linecap="butt">
      <rect x="726.6341" y="-164.3368" clip-path="url(#clipPath2)" fill="none" width="65.224" rx="4" ry="4" height="30"/>
      <text x="736.9161" y="-144.623" clip-path="url(#clipPath2)" font-family="sans-serif" stroke="none" font-weight="bold" xml:space="preserve">With Us</text>
    </g>
    <g fill="rgb(255,226,252)" text-rendering="geometricPrecision" shape-rendering="geometricPrecision" transform="matrix(2.4414,0,0,2.4414,-1674.8047,803.2227)" stroke="rgb(255,226,252)">
      <rect x="791.8581" y="-122.9311" clip-path="url(#clipPath2)" width="66.0192" rx="4" ry="4" height="30" stroke="none"/>
    </g>
    <g stroke-linecap="butt" transform="matrix(2.4414,0,0,2.4414,-1674.8047,803.2227)" fill="maroon" text-rendering="geometricPrecision" shape-rendering="geometricPrecision" stroke="maroon" stroke-miterlimit="1.45">
      <rect x="791.8581" y="-122.9311" clip-path="url(#clipPath2)" fill="none" width="66.0192" rx="4" ry="4" height="30"/>
      <text x="819.1988" y="-103.2172" clip-path="url(#clipPath2)" font-family="sans-serif" stroke="none" font-weight="bold" xml:space="preserve">El</text>
    </g>
    <g fill="rgb(240,240,240)" text-rendering="geometricPrecision" shape-rendering="geometricPrecision" transform="matrix(2.4414,0,0,2.4414,-1674.8047,803.2227)" stroke="rgb(240,240,240)">
      <rect x="726.6341" y="-122.9311" clip-path="url(#clipPath2)" width="65.224" rx="4" ry="4" height="30" stroke="none"/>
    </g>
    <g text-rendering="geometricPrecision" stroke-miterlimit="1.45" shape-rendering="geometricPrecision" transform="matrix(2.4414,0,0,2.4414,-1674.8047,803.2227)" stroke-linecap="butt">
      <rect x="726.6341" y="-122.9311" clip-path="url(#clipPath2)" fill="none" width="65.224" rx="4" ry="4" height="30"/>
      <text x="731.9092" y="-103.2172" clip-path="url(#clipPath2)" font-family="sans-serif" stroke="none" font-weight="bold" xml:space="preserve">Emmanu-</text>
    </g>
    <g fill="rgb(240,240,240)" text-rendering="geometricPrecision" shape-rendering="geometricPrecision" transform="matrix(2.4414,0,0,2.4414,-1674.8047,803.2227)" stroke="rgb(240,240,240)">
      <rect x="723.6727" y="-224.3368" clip-path="url(#clipPath2)" width="65.224" rx="4" ry="4" height="30" stroke="none"/>
    </g>
    <g text-rendering="geometricPrecision" stroke-miterlimit="1.45" shape-rendering="geometricPrecision" transform="matrix(2.4414,0,0,2.4414,-1674.8047,803.2227)" stroke-linecap="butt">
      <rect x="723.6727" y="-224.3368" clip-path="url(#clipPath2)" fill="none" width="65.224" rx="4" ry="4" height="30"/>
      <text x="728.9273" y="-204.623" clip-path="url(#clipPath2)" font-family="sans-serif" stroke="none" font-weight="bold" xml:space="preserve">"To Us..."</text>
    </g>
    <g fill="rgb(255,226,252)" text-rendering="geometricPrecision" shape-rendering="geometricPrecision" transform="matrix(2.4414,0,0,2.4414,-1674.8047,803.2227)" stroke="rgb(255,226,252)">
      <rect x="794.6424" y="-224.3368" clip-path="url(#clipPath2)" width="66.0192" rx="4" ry="4" height="30" stroke="none"/>
    </g>
    <g stroke-linecap="butt" transform="matrix(2.4414,0,0,2.4414,-1674.8047,803.2227)" fill="maroon" text-rendering="geometricPrecision" shape-rendering="geometricPrecision" stroke="maroon" stroke-miterlimit="1.45">
      <rect x="794.6424" y="-224.3368" clip-path="url(#clipPath2)" fill="none" width="66.0192" rx="4" ry="4" height="30"/>
      <text x="808.3219" y="-211.9735" clip-path="url(#clipPath2)" font-family="sans-serif" stroke="none" font-weight="bold" xml:space="preserve">Mighty</text>
      <text x="813.985" y="-197.2724" clip-path="url(#clipPath2)" font-family="sans-serif" stroke="none" font-weight="bold" xml:space="preserve">GOD</text>
    </g>
    <g fill="white" text-rendering="geometricPrecision" shape-rendering="geometricPrecision" transform="matrix(2.4414,0,0,2.4414,-1674.8047,803.2227)" stroke="white">
      <rect x="720.7999" y="-299.3557" clip-path="url(#clipPath2)" width="136.9889" rx="4" ry="4" height="47.968" stroke="none"/>
    </g>
    <g stroke-linecap="butt" transform="matrix(2.4414,0,0,2.4414,-1674.8047,803.2227)" fill="rgb(51,51,153)" text-rendering="geometricPrecision" shape-rendering="geometricPrecision" stroke="rgb(51,51,153)" stroke-miterlimit="1.45">
      <rect x="720.7999" y="-299.3557" clip-path="url(#clipPath2)" fill="none" width="136.9889" rx="4" ry="4" height="47.968"/>
      <text x="728.8732" font-size="15px" y="-269.4794" clip-path="url(#clipPath2)" font-family="sans-serif" stroke="none" font-weight="bold" xml:space="preserve">Angel of Yahweh</text>
    </g>
    <g fill="rgb(255,226,252)" text-rendering="geometricPrecision" shape-rendering="geometricPrecision" transform="matrix(2.4414,0,0,2.4414,-1674.8047,803.2227)" stroke="rgb(255,226,252)">
      <rect x="965.1547" y="-296.7957" clip-path="url(#clipPath2)" width="59.5344" rx="4" ry="4" height="21.424" stroke="none"/>
    </g>
    <g stroke-linecap="butt" transform="matrix(2.4414,0,0,2.4414,-1674.8047,803.2227)" fill="maroon" text-rendering="geometricPrecision" shape-rendering="geometricPrecision" stroke="maroon" stroke-miterlimit="1.45">
      <rect x="965.1547" y="-296.7957" clip-path="url(#clipPath2)" fill="none" width="59.5344" rx="4" ry="4" height="21.424"/>
      <text x="967.5908" y="-281.3698" clip-path="url(#clipPath2)" font-family="sans-serif" stroke="none" font-weight="bold" xml:space="preserve">The Child</text>
    </g>
    <g fill="rgb(240,240,240)" text-rendering="geometricPrecision" shape-rendering="geometricPrecision" transform="matrix(2.4414,0,0,2.4414,-1674.8047,803.2227)" stroke="rgb(240,240,240)">
      <rect x="890.6616" y="-218.4386" clip-path="url(#clipPath2)" width="59.3012" rx="4" ry="4" height="27.0509" stroke="none"/>
    </g>
    <g text-rendering="geometricPrecision" stroke-miterlimit="1.45" shape-rendering="geometricPrecision" transform="matrix(2.4414,0,0,2.4414,-1674.8047,803.2227)" stroke-linecap="butt">
      <rect x="890.6616" y="-218.4386" clip-path="url(#clipPath2)" fill="none" width="59.3012" rx="4" ry="4" height="27.0509"/>
      <text x="892.9548" y="-200.1993" clip-path="url(#clipPath2)" font-family="sans-serif" stroke="none" font-weight="bold" xml:space="preserve">"To Us..."</text>
    </g>
    <g fill="rgb(240,240,240)" text-rendering="geometricPrecision" shape-rendering="geometricPrecision" transform="matrix(2.4414,0,0,2.4414,-1674.8047,803.2227)" stroke="rgb(240,240,240)">
      <rect x="882.652" y="-275.3717" clip-path="url(#clipPath2)" width="59.5344" rx="4" ry="4" height="23.984" stroke="none"/>
    </g>
    <g text-rendering="geometricPrecision" stroke-miterlimit="1.45" shape-rendering="geometricPrecision" transform="matrix(2.4414,0,0,2.4414,-1674.8047,803.2227)" stroke-linecap="butt">
      <rect x="882.652" y="-275.3717" clip-path="url(#clipPath2)" fill="none" width="59.5344" rx="4" ry="4" height="23.984"/>
      <text x="890.0569" y="-258.6658" clip-path="url(#clipPath2)" font-family="sans-serif" stroke="none" font-weight="bold" xml:space="preserve">"Given"</text>
    </g>
    <g fill="rgb(240,240,240)" text-rendering="geometricPrecision" shape-rendering="geometricPrecision" transform="matrix(2.4414,0,0,2.4414,-1674.8047,803.2227)" stroke="rgb(240,240,240)">
      <rect x="882.652" y="-299.3557" clip-path="url(#clipPath2)" width="59.5344" rx="4" ry="4" height="23.984" stroke="none"/>
    </g>
    <g text-rendering="geometricPrecision" stroke-miterlimit="1.45" shape-rendering="geometricPrecision" transform="matrix(2.4414,0,0,2.4414,-1674.8047,803.2227)" stroke-linecap="butt">
      <rect x="882.652" y="-299.3557" clip-path="url(#clipPath2)" fill="none" width="59.5344" rx="4" ry="4" height="23.984"/>
      <text x="892.7317" y="-282.6498" clip-path="url(#clipPath2)" font-family="sans-serif" stroke="none" font-weight="bold" xml:space="preserve">"Born"</text>
    </g>
    <g fill="rgb(255,226,252)" text-rendering="geometricPrecision" shape-rendering="geometricPrecision" transform="matrix(2.4414,0,0,2.4414,-1674.8047,803.2227)" stroke="rgb(255,226,252)">
      <rect x="965.1547" y="-275.3717" clip-path="url(#clipPath2)" width="59.5344" rx="4" ry="4" height="23.984" stroke="none"/>
    </g>
    <g stroke-linecap="butt" transform="matrix(2.4414,0,0,2.4414,-1674.8047,803.2227)" fill="maroon" text-rendering="geometricPrecision" shape-rendering="geometricPrecision" stroke="maroon" stroke-miterlimit="1.45">
      <rect x="965.1547" y="-275.3717" clip-path="url(#clipPath2)" fill="none" width="59.5344" rx="4" ry="4" height="23.984"/>
      <text x="971.2559" y="-258.6658" clip-path="url(#clipPath2)" font-family="sans-serif" stroke="none" font-weight="bold" xml:space="preserve">The Son</text>
    </g>
    <g fill="rgb(255,226,252)" text-rendering="geometricPrecision" shape-rendering="geometricPrecision" transform="matrix(2.4414,0,0,2.4414,-1674.8047,803.2227)" stroke="rgb(255,226,252)">
      <rect x="961.4541" y="-218.4386" clip-path="url(#clipPath2)" width="60.4507" rx="4" ry="4" height="27.0509" stroke="none"/>
    </g>
    <g stroke-linecap="butt" transform="matrix(2.4414,0,0,2.4414,-1674.8047,803.2227)" fill="maroon" text-rendering="geometricPrecision" shape-rendering="geometricPrecision" stroke="maroon" stroke-miterlimit="1.45">
      <rect x="961.4541" y="-218.4386" clip-path="url(#clipPath2)" fill="none" width="60.4507" rx="4" ry="4" height="27.0509"/>
      <text x="972.3494" y="-207.5499" clip-path="url(#clipPath2)" font-family="sans-serif" stroke="none" font-weight="bold" xml:space="preserve">Mighty</text>
      <text x="978.0125" y="-192.8487" clip-path="url(#clipPath2)" font-family="sans-serif" stroke="none" font-weight="bold" xml:space="preserve">GOD</text>
    </g>
    <g fill="rgb(255,226,252)" text-rendering="geometricPrecision" shape-rendering="geometricPrecision" transform="matrix(2.4414,0,0,2.4414,-1674.8047,803.2227)" stroke="rgb(255,226,252)">
      <rect x="955.8856" y="-158.4386" clip-path="url(#clipPath2)" width="66.0192" rx="4" ry="4" height="27.0509" stroke="none"/>
    </g>
    <g stroke-linecap="butt" transform="matrix(2.4414,0,0,2.4414,-1674.8047,803.2227)" fill="maroon" text-rendering="geometricPrecision" shape-rendering="geometricPrecision" stroke="maroon" stroke-miterlimit="1.45">
      <rect x="955.8856" y="-158.4386" clip-path="url(#clipPath2)" fill="none" width="66.0192" rx="4" ry="4" height="27.0509"/>
      <text x="975.2282" y="-140.1993" clip-path="url(#clipPath2)" font-family="sans-serif" stroke="none" font-weight="bold" xml:space="preserve">GOD</text>
    </g>
    <g fill="rgb(240,240,240)" text-rendering="geometricPrecision" shape-rendering="geometricPrecision" transform="matrix(2.4414,0,0,2.4414,-1674.8047,803.2227)" stroke="rgb(240,240,240)">
      <rect x="890.6616" y="-158.4386" clip-path="url(#clipPath2)" width="65.224" rx="4" ry="4" height="27.0509" stroke="none"/>
    </g>
    <g text-rendering="geometricPrecision" stroke-miterlimit="1.45" shape-rendering="geometricPrecision" transform="matrix(2.4414,0,0,2.4414,-1674.8047,803.2227)" stroke-linecap="butt">
      <rect x="890.6616" y="-158.4386" clip-path="url(#clipPath2)" fill="none" width="65.224" rx="4" ry="4" height="27.0509"/>
      <text x="900.9435" y="-140.1993" clip-path="url(#clipPath2)" font-family="sans-serif" stroke="none" font-weight="bold" xml:space="preserve">With Us</text>
    </g>
    <g fill="rgb(255,226,252)" text-rendering="geometricPrecision" shape-rendering="geometricPrecision" transform="matrix(2.4414,0,0,2.4414,-1674.8047,803.2227)" stroke="rgb(255,226,252)">
      <rect x="955.8856" y="-119.982" clip-path="url(#clipPath2)" width="66.0192" rx="4" ry="4" height="30" stroke="none"/>
    </g>
    <g stroke-linecap="butt" transform="matrix(2.4414,0,0,2.4414,-1674.8047,803.2227)" fill="maroon" text-rendering="geometricPrecision" shape-rendering="geometricPrecision" stroke="maroon" stroke-miterlimit="1.45">
      <rect x="955.8856" y="-119.982" clip-path="url(#clipPath2)" fill="none" width="66.0192" rx="4" ry="4" height="30"/>
      <text x="983.2263" y="-100.2681" clip-path="url(#clipPath2)" font-family="sans-serif" stroke="none" font-weight="bold" xml:space="preserve">El</text>
    </g>
    <g fill="rgb(240,240,240)" text-rendering="geometricPrecision" shape-rendering="geometricPrecision" transform="matrix(2.4414,0,0,2.4414,-1674.8047,803.2227)" stroke="rgb(240,240,240)">
      <rect x="890.6616" y="-119.982" clip-path="url(#clipPath2)" width="65.224" rx="4" ry="4" height="30" stroke="none"/>
    </g>
    <g text-rendering="geometricPrecision" stroke-miterlimit="1.45" shape-rendering="geometricPrecision" transform="matrix(2.4414,0,0,2.4414,-1674.8047,803.2227)" stroke-linecap="butt">
      <rect x="890.6616" y="-119.982" clip-path="url(#clipPath2)" fill="none" width="65.224" rx="4" ry="4" height="30"/>
      <text x="895.9367" y="-100.2681" clip-path="url(#clipPath2)" font-family="sans-serif" stroke="none" font-weight="bold" xml:space="preserve">Emmanu-</text>
    </g>
    <g fill="rgb(255,226,252)" text-rendering="geometricPrecision" shape-rendering="geometricPrecision" transform="matrix(2.4414,0,0,2.4414,-1674.8047,803.2227)" stroke="rgb(255,226,252)">
      <rect x="958.6699" y="-221.3877" clip-path="url(#clipPath2)" width="66.0192" rx="4" ry="4" height="30" stroke="none"/>
    </g>
    <g stroke-linecap="butt" transform="matrix(2.4414,0,0,2.4414,-1674.8047,803.2227)" fill="maroon" text-rendering="geometricPrecision" shape-rendering="geometricPrecision" stroke="maroon" stroke-miterlimit="1.45">
      <rect x="958.6699" y="-221.3877" clip-path="url(#clipPath2)" fill="none" width="66.0192" rx="4" ry="4" height="30"/>
      <text x="972.3494" y="-209.0244" clip-path="url(#clipPath2)" font-family="sans-serif" stroke="none" font-weight="bold" xml:space="preserve">Mighty</text>
      <text x="978.0125" y="-194.3233" clip-path="url(#clipPath2)" font-family="sans-serif" stroke="none" font-weight="bold" xml:space="preserve">GOD</text>
    </g>
    <g fill="rgb(240,240,240)" text-rendering="geometricPrecision" shape-rendering="geometricPrecision" transform="matrix(2.4414,0,0,2.4414,-1674.8047,803.2227)" stroke="rgb(240,240,240)">
      <rect x="887.7002" y="-221.3877" clip-path="url(#clipPath2)" width="65.224" rx="4" ry="4" height="30" stroke="none"/>
    </g>
    <g text-rendering="geometricPrecision" stroke-miterlimit="1.45" shape-rendering="geometricPrecision" transform="matrix(2.4414,0,0,2.4414,-1674.8047,803.2227)" stroke-linecap="butt">
      <rect x="887.7002" y="-221.3877" clip-path="url(#clipPath2)" fill="none" width="65.224" rx="4" ry="4" height="30"/>
      <text x="892.9548" y="-201.6738" clip-path="url(#clipPath2)" font-family="sans-serif" stroke="none" font-weight="bold" xml:space="preserve">"To Us..."</text>
    </g>
    <g fill="rgb(240,240,240)" text-rendering="geometricPrecision" shape-rendering="geometricPrecision" transform="matrix(2.4414,0,0,2.4414,-1674.8047,803.2227)" stroke="rgb(240,240,240)">
      <rect x="890.6616" y="-119.982" clip-path="url(#clipPath2)" width="65.224" rx="4" ry="4" height="30" stroke="none"/>
    </g>
    <g text-rendering="geometricPrecision" stroke-miterlimit="1.45" shape-rendering="geometricPrecision" transform="matrix(2.4414,0,0,2.4414,-1674.8047,803.2227)" stroke-linecap="butt">
      <rect x="890.6616" y="-119.982" clip-path="url(#clipPath2)" fill="none" width="65.224" rx="4" ry="4" height="30"/>
      <text x="895.9367" y="-100.2681" clip-path="url(#clipPath2)" font-family="sans-serif" stroke="none" font-weight="bold" xml:space="preserve">Emmanu-</text>
    </g>
    <g fill="rgb(255,226,252)" text-rendering="geometricPrecision" shape-rendering="geometricPrecision" transform="matrix(2.4414,0,0,2.4414,-1674.8047,803.2227)" stroke="rgb(255,226,252)">
      <rect x="955.8856" y="-119.982" clip-path="url(#clipPath2)" width="66.0192" rx="4" ry="4" height="30" stroke="none"/>
    </g>
    <g stroke-linecap="butt" transform="matrix(2.4414,0,0,2.4414,-1674.8047,803.2227)" fill="maroon" text-rendering="geometricPrecision" shape-rendering="geometricPrecision" stroke="maroon" stroke-miterlimit="1.45">
      <rect x="955.8856" y="-119.982" clip-path="url(#clipPath2)" fill="none" width="66.0192" rx="4" ry="4" height="30"/>
      <text x="983.2263" y="-100.2681" clip-path="url(#clipPath2)" font-family="sans-serif" stroke="none" font-weight="bold" xml:space="preserve">El</text>
    </g>
    <g fill="rgb(240,240,240)" text-rendering="geometricPrecision" shape-rendering="geometricPrecision" transform="matrix(2.4414,0,0,2.4414,-1674.8047,803.2227)" stroke="rgb(240,240,240)">
      <rect x="890.6616" y="-161.3877" clip-path="url(#clipPath2)" width="65.224" rx="4" ry="4" height="30" stroke="none"/>
    </g>
    <g text-rendering="geometricPrecision" stroke-miterlimit="1.45" shape-rendering="geometricPrecision" transform="matrix(2.4414,0,0,2.4414,-1674.8047,803.2227)" stroke-linecap="butt">
      <rect x="890.6616" y="-161.3877" clip-path="url(#clipPath2)" fill="none" width="65.224" rx="4" ry="4" height="30"/>
      <text x="900.9435" y="-141.6738" clip-path="url(#clipPath2)" font-family="sans-serif" stroke="none" font-weight="bold" xml:space="preserve">With Us</text>
    </g>
    <g fill="rgb(255,226,252)" text-rendering="geometricPrecision" shape-rendering="geometricPrecision" transform="matrix(2.4414,0,0,2.4414,-1674.8047,803.2227)" stroke="rgb(255,226,252)">
      <rect x="955.8856" y="-161.3877" clip-path="url(#clipPath2)" width="66.0192" rx="4" ry="4" height="30" stroke="none"/>
    </g>
    <g stroke-linecap="butt" transform="matrix(2.4414,0,0,2.4414,-1674.8047,803.2227)" fill="maroon" text-rendering="geometricPrecision" shape-rendering="geometricPrecision" stroke="maroon" stroke-miterlimit="1.45">
      <rect x="955.8856" y="-161.3877" clip-path="url(#clipPath2)" fill="none" width="66.0192" rx="4" ry="4" height="30"/>
      <text x="975.2282" y="-141.6738" clip-path="url(#clipPath2)" font-family="sans-serif" stroke="none" font-weight="bold" xml:space="preserve">GOD</text>
    </g>
    <g fill="rgb(255,226,252)" text-rendering="geometricPrecision" shape-rendering="geometricPrecision" transform="matrix(2.4414,0,0,2.4414,-1674.8047,803.2227)" stroke="rgb(255,226,252)">
      <rect x="965.1547" y="-299.3557" clip-path="url(#clipPath2)" width="59.5344" rx="4" ry="4" height="23.984" stroke="none"/>
    </g>
    <g stroke-linecap="butt" transform="matrix(2.4414,0,0,2.4414,-1674.8047,803.2227)" fill="maroon" text-rendering="geometricPrecision" shape-rendering="geometricPrecision" stroke="maroon" stroke-miterlimit="1.45">
      <rect x="965.1547" y="-299.3557" clip-path="url(#clipPath2)" fill="none" width="59.5344" rx="4" ry="4" height="23.984"/>
      <text x="967.5908" y="-282.6498" clip-path="url(#clipPath2)" font-family="sans-serif" stroke="none" font-weight="bold" xml:space="preserve">The Child</text>
    </g>
    <g fill="rgb(255,226,252)" text-rendering="geometricPrecision" shape-rendering="geometricPrecision" transform="matrix(2.4414,0,0,2.4414,-1674.8047,803.2227)" stroke="rgb(255,226,252)">
      <rect x="965.1547" y="-275.3717" clip-path="url(#clipPath2)" width="59.5344" rx="4" ry="4" height="23.984" stroke="none"/>
    </g>
    <g stroke-linecap="butt" transform="matrix(2.4414,0,0,2.4414,-1674.8047,803.2227)" fill="maroon" text-rendering="geometricPrecision" shape-rendering="geometricPrecision" stroke="maroon" stroke-miterlimit="1.45">
      <rect x="965.1547" y="-275.3717" clip-path="url(#clipPath2)" fill="none" width="59.5344" rx="4" ry="4" height="23.984"/>
      <text x="971.2559" y="-258.6658" clip-path="url(#clipPath2)" font-family="sans-serif" stroke="none" font-weight="bold" xml:space="preserve">The Son</text>
    </g>
    <g fill="rgb(240,240,240)" text-rendering="geometricPrecision" shape-rendering="geometricPrecision" transform="matrix(2.4414,0,0,2.4414,-1674.8047,803.2227)" stroke="rgb(240,240,240)">
      <rect x="882.652" y="-299.3557" clip-path="url(#clipPath2)" width="59.5344" rx="4" ry="4" height="23.984" stroke="none"/>
    </g>
    <g text-rendering="geometricPrecision" stroke-miterlimit="1.45" shape-rendering="geometricPrecision" transform="matrix(2.4414,0,0,2.4414,-1674.8047,803.2227)" stroke-linecap="butt">
      <rect x="882.652" y="-299.3557" clip-path="url(#clipPath2)" fill="none" width="59.5344" rx="4" ry="4" height="23.984"/>
      <text x="892.7317" y="-282.6498" clip-path="url(#clipPath2)" font-family="sans-serif" stroke="none" font-weight="bold" xml:space="preserve">"Born"</text>
    </g>
    <g fill="rgb(240,240,240)" text-rendering="geometricPrecision" shape-rendering="geometricPrecision" transform="matrix(2.4414,0,0,2.4414,-1674.8047,803.2227)" stroke="rgb(240,240,240)">
      <rect x="882.652" y="-275.3717" clip-path="url(#clipPath2)" width="59.5344" rx="4" ry="4" height="23.984" stroke="none"/>
    </g>
    <g text-rendering="geometricPrecision" stroke-miterlimit="1.45" shape-rendering="geometricPrecision" transform="matrix(2.4414,0,0,2.4414,-1674.8047,803.2227)" stroke-linecap="butt">
      <rect x="882.652" y="-275.3717" clip-path="url(#clipPath2)" fill="none" width="59.5344" rx="4" ry="4" height="23.984"/>
      <text x="890.0569" y="-258.6658" clip-path="url(#clipPath2)" font-family="sans-serif" stroke="none" font-weight="bold" xml:space="preserve">"Given"</text>
      <path fill="none" d="M759.7434 -251.3954 L756.2847 -250.009 L756.2847 -235.4035" stroke-width="7" clip-path="url(#clipPath2)" stroke="white"/>
      <path fill="white" d="M756.2847 -221.4035 L765.0347 -242.4035 L756.2847 -237.1535 L747.5347 -242.4035 Z" stroke-width="7" clip-path="url(#clipPath2)" stroke="none"/>
      <path fill="none" d="M826.5443 -251.379 L828.6586 -250.7064 L828.2983 -235.3727" stroke-width="7" clip-path="url(#clipPath2)" stroke="white"/>
      <path fill="white" d="M827.9695 -221.3766 L837.2103 -242.1653 L828.3394 -237.1222 L819.7151 -242.5763 Z" stroke-width="7" clip-path="url(#clipPath2)" stroke="none"/>
      <path fill="none" d="M827.652 -194.3548 L827.652 -191.2776 L824.8677 -182.1597 L824.8677 -175.3602" stroke-width="7" clip-path="url(#clipPath2)" stroke="white"/>
      <path fill="white" d="M824.8677 -161.3602 L833.6177 -182.3602 L824.8677 -177.1102 L816.1177 -182.3602 Z" stroke-width="7" clip-path="url(#clipPath2)" stroke="none"/>
      <path fill="none" d="M756.2847 -194.3088 L756.2847 -192.1977 L759.2462 -182.1597 L759.2462 -175.3602" stroke-width="7" clip-path="url(#clipPath2)" stroke="white"/>
      <path fill="white" d="M759.2462 -161.3602 L767.9962 -182.3602 L759.2462 -177.1102 L750.4962 -182.3602 Z" stroke-width="7" clip-path="url(#clipPath2)" stroke="none"/>
      <path fill="none" d="M824.8677 -134.3309 L824.8677 -122.9099" stroke-width="7" clip-path="url(#clipPath2)" stroke="white"/>
      <path fill="none" d="M759.2462 -134.3309 L759.2462 -122.9099" stroke-width="7" clip-path="url(#clipPath2)" stroke="white"/>
      <path fill="none" d="M824.8677 -134.3353 L824.8677 -122.9124" stroke-width="4" clip-path="url(#clipPath2)" stroke="maroon"/>
      <path fill="none" d="M759.2462 -134.3353 L759.2462 -122.9124" stroke-width="4" clip-path="url(#clipPath2)"/>
      <path fill="none" d="M756.2847 -194.3066 L756.2847 -192.1977 L759.2462 -182.1597 L759.2462 -175.3059" stroke-width="4" clip-path="url(#clipPath2)"/>
      <path d="M759.2462 -164.3059 L766.1212 -180.8059 L759.2462 -176.6809 L752.3712 -180.8059 Z" stroke-width="4" clip-path="url(#clipPath2)" stroke="none"/>
      <path fill="none" d="M827.652 -194.3462 L827.652 -191.2776 L824.8677 -182.1597 L824.8677 -175.3059" stroke-width="4" clip-path="url(#clipPath2)" stroke="maroon"/>
      <path fill="maroon" d="M824.8677 -164.3059 L831.7427 -180.8059 L824.8677 -176.6809 L817.9927 -180.8059 Z" stroke-width="4" clip-path="url(#clipPath2)" stroke="none"/>
      <path fill="none" d="M759.8629 -251.3954 L756.2847 -250.009 L756.2847 -235.3109" stroke-width="4" clip-path="url(#clipPath2)" stroke="rgb(51,51,153)"/>
      <path fill="rgb(51,51,153)" d="M756.2847 -224.3109 L763.1597 -240.8109 L756.2847 -236.6859 L749.4097 -240.8109 Z" stroke-width="4" clip-path="url(#clipPath2)" stroke="none"/>
      <path fill="none" d="M825.5918 -251.379 L827.652 -250.7064 L827.652 -235.3252" stroke-width="4" clip-path="url(#clipPath2)" stroke="rgb(51,51,153)"/>
      <path fill="rgb(51,51,153)" d="M827.652 -224.3252 L834.527 -240.8252 L827.652 -236.7002 L820.777 -240.8252 Z" stroke-width="4" clip-path="url(#clipPath2)" stroke="none"/>
      <path fill="none" d="M912.4192 -251.3901 L912.4192 -246.4687 L920.3122 -239.1577 L920.3122 -232.4572" stroke-width="7" clip-path="url(#clipPath2)" stroke="white"/>
      <path fill="white" d="M920.3122 -218.4572 L929.0622 -239.4572 L920.3122 -234.2072 L911.5622 -239.4572 Z" stroke-width="7" clip-path="url(#clipPath2)" stroke="none"/>
      <path fill="none" d="M965.1516 -286.5456 L942.2099 -286.9015" stroke-width="7" clip-path="url(#clipPath2)" stroke="white"/>
      <path fill="none" d="M965.1516 -263.3797 L942.2099 -263.3797" stroke-width="7" clip-path="url(#clipPath2)" stroke="white"/>
      <path fill="none" d="M994.9219 -251.363 L994.9219 -245.3371 L991.6794 -239.4535 L991.6794 -232.4392" stroke-width="7" clip-path="url(#clipPath2)" stroke="white"/>
      <path fill="white" d="M991.6794 -218.4392 L1000.4294 -239.4392 L991.6794 -234.1892 L982.9294 -239.4392 Z" stroke-width="7" clip-path="url(#clipPath2)" stroke="none"/>
      <path fill="none" d="M991.6794 -191.4057 L991.6794 -188.3284 L988.8952 -179.2106 L988.8952 -172.4111" stroke-width="7" clip-path="url(#clipPath2)" stroke="white"/>
      <path fill="white" d="M988.8952 -158.4111 L997.6452 -179.4111 L988.8952 -174.1611 L980.1452 -179.4111 Z" stroke-width="7" clip-path="url(#clipPath2)" stroke="none"/>
      <path fill="none" d="M920.3122 -191.3596 L920.3122 -189.2486 L923.2736 -179.2106 L923.2736 -172.4111" stroke-width="7" clip-path="url(#clipPath2)" stroke="white"/>
      <path fill="white" d="M923.2736 -158.4111 L932.0236 -179.4111 L923.2736 -174.1611 L914.5236 -179.4111 Z" stroke-width="7" clip-path="url(#clipPath2)" stroke="none"/>
      <path fill="none" d="M988.8952 -131.3818 L988.8952 -119.9608" stroke-width="7" clip-path="url(#clipPath2)" stroke="white"/>
      <path fill="none" d="M923.2736 -131.3818 L923.2736 -119.9608" stroke-width="7" clip-path="url(#clipPath2)" stroke="white"/>
      <path fill="none" d="M920.3122 -191.3575 L920.3122 -189.2486 L923.2736 -179.2106 L923.2736 -172.3567" stroke-width="4" clip-path="url(#clipPath2)"/>
      <path d="M923.2736 -161.3567 L930.1486 -177.8567 L923.2736 -173.7317 L916.3986 -177.8567 Z" stroke-width="4" clip-path="url(#clipPath2)" stroke="none"/>
      <path fill="none" d="M923.2736 -131.3862 L923.2736 -119.9633" stroke-width="4" clip-path="url(#clipPath2)"/>
      <path fill="none" d="M991.6794 -191.3971 L991.6794 -188.3284 L988.8952 -179.2106 L988.8952 -172.3567" stroke-width="4" clip-path="url(#clipPath2)" stroke="maroon"/>
      <path fill="maroon" d="M988.8952 -161.3567 L995.7702 -177.8567 L988.8952 -173.7317 L982.0202 -177.8567 Z" stroke-width="4" clip-path="url(#clipPath2)" stroke="none"/>
      <path fill="none" d="M988.8952 -131.3862 L988.8952 -119.9633" stroke-width="4" clip-path="url(#clipPath2)" stroke="maroon"/>
      <path fill="none" d="M994.9219 -251.363 L994.9219 -245.3371 L991.6794 -239.4535 L991.6794 -232.403" stroke-width="4" clip-path="url(#clipPath2)" stroke="maroon"/>
      <path fill="maroon" d="M991.6794 -221.403 L998.5544 -237.903 L991.6794 -233.778 L984.8044 -237.903 Z" stroke-width="4" clip-path="url(#clipPath2)" stroke="none"/>
      <path fill="none" d="M965.1516 -287.3637 L942.2099 -287.3637" stroke-width="4" clip-path="url(#clipPath2)" stroke="maroon"/>
      <path fill="none" d="M965.1516 -263.3797 L942.2099 -263.3797" stroke-width="4" clip-path="url(#clipPath2)" stroke="maroon"/>
      <path fill="none" d="M912.4192 -251.3901 L912.4192 -246.4687 L920.3122 -239.1577 L920.3122 -232.3966" stroke-width="4" clip-path="url(#clipPath2)"/>
      <path d="M920.3122 -221.3966 L927.1872 -237.8966 L920.3122 -233.7716 L913.4372 -237.8966 Z" stroke-width="4" clip-path="url(#clipPath2)" stroke="none"/>
    </g>
  </g>
</svg>
