<?xml version="1.0" encoding="UTF-8"?><svg xmlns="http://www.w3.org/2000/svg" xmlns:xlink="http://www.w3.org/1999/xlink" fill-opacity="1" color-rendering="auto" color-interpolation="auto" text-rendering="auto" stroke="black" stroke-linecap="square" width="448" stroke-miterlimit="10" shape-rendering="auto" stroke-opacity="1" fill="black" stroke-dasharray="none" font-weight="normal" stroke-width="1" height="635" font-family="'Dialog'" font-style="normal" stroke-linejoin="miter" font-size="12px" stroke-dashoffset="0" image-rendering="auto">
  <!--Generated by ySVG 2.6-->
  <defs id="genericDefs"/>
  <g>
    <defs id="defs1">
      <clipPath clipPathUnits="userSpaceOnUse" id="clipPath1">
        <path d="M0 0 L448 0 L448 635 L0 635 L0 0 Z"/>
      </clipPath>
      <clipPath clipPathUnits="userSpaceOnUse" id="clipPath2">
        <path d="M298 -244 L450.9173 -244 L450.9173 -27.2533 L298 -27.2533 L298 -244 Z"/>
      </clipPath>
    </defs>
    <g fill="rgb(255,226,252)" text-rendering="geometricPrecision" shape-rendering="geometricPrecision" transform="matrix(2.9297,0,0,2.9297,-873.0469,714.8438)" stroke="rgb(255,226,252)">
      <rect x="384.4271" y="-238.2703" clip-path="url(#clipPath2)" width="59.5344" rx="4" ry="4" height="21.424" stroke="none"/>
    </g>
    <g stroke-linecap="butt" transform="matrix(2.9297,0,0,2.9297,-873.0469,714.8438)" fill="maroon" text-rendering="geometricPrecision" shape-rendering="geometricPrecision" stroke="maroon" stroke-miterlimit="1.45">
      <rect x="384.4271" y="-238.2703" clip-path="url(#clipPath2)" fill="none" width="59.5344" rx="4" ry="4" height="21.424"/>
      <text x="386.8633" y="-222.8444" clip-path="url(#clipPath2)" font-family="sans-serif" stroke="none" font-weight="bold" xml:space="preserve">The Child</text>
    </g>
    <g fill="rgb(240,240,240)" text-rendering="geometricPrecision" shape-rendering="geometricPrecision" transform="matrix(2.9297,0,0,2.9297,-873.0469,714.8438)" stroke="rgb(240,240,240)">
      <rect x="309.934" y="-159.9131" clip-path="url(#clipPath2)" width="59.3012" rx="4" ry="4" height="27.0509" stroke="none"/>
    </g>
    <g text-rendering="geometricPrecision" stroke-miterlimit="1.45" shape-rendering="geometricPrecision" transform="matrix(2.9297,0,0,2.9297,-873.0469,714.8438)" stroke-linecap="butt">
      <rect x="309.934" y="-159.9131" clip-path="url(#clipPath2)" fill="none" width="59.3012" rx="4" ry="4" height="27.0509"/>
      <text x="312.2272" y="-141.6738" clip-path="url(#clipPath2)" font-family="sans-serif" stroke="none" font-weight="bold" xml:space="preserve">"To Us..."</text>
    </g>
    <g fill="rgb(240,240,240)" text-rendering="geometricPrecision" shape-rendering="geometricPrecision" transform="matrix(2.9297,0,0,2.9297,-873.0469,714.8438)" stroke="rgb(240,240,240)">
      <rect x="301.9244" y="-216.8463" clip-path="url(#clipPath2)" width="59.5344" rx="4" ry="4" height="23.984" stroke="none"/>
    </g>
    <g text-rendering="geometricPrecision" stroke-miterlimit="1.45" shape-rendering="geometricPrecision" transform="matrix(2.9297,0,0,2.9297,-873.0469,714.8438)" stroke-linecap="butt">
      <rect x="301.9244" y="-216.8463" clip-path="url(#clipPath2)" fill="none" width="59.5344" rx="4" ry="4" height="23.984"/>
      <text x="309.3293" y="-200.1404" clip-path="url(#clipPath2)" font-family="sans-serif" stroke="none" font-weight="bold" xml:space="preserve">"Given"</text>
    </g>
    <g fill="rgb(240,240,240)" text-rendering="geometricPrecision" shape-rendering="geometricPrecision" transform="matrix(2.9297,0,0,2.9297,-873.0469,714.8438)" stroke="rgb(240,240,240)">
      <rect x="301.9244" y="-240.8303" clip-path="url(#clipPath2)" width="59.5344" rx="4" ry="4" height="23.984" stroke="none"/>
    </g>
    <g text-rendering="geometricPrecision" stroke-miterlimit="1.45" shape-rendering="geometricPrecision" transform="matrix(2.9297,0,0,2.9297,-873.0469,714.8438)" stroke-linecap="butt">
      <rect x="301.9244" y="-240.8303" clip-path="url(#clipPath2)" fill="none" width="59.5344" rx="4" ry="4" height="23.984"/>
      <text x="312.0042" y="-224.1244" clip-path="url(#clipPath2)" font-family="sans-serif" stroke="none" font-weight="bold" xml:space="preserve">"Born"</text>
    </g>
    <g fill="rgb(255,226,252)" text-rendering="geometricPrecision" shape-rendering="geometricPrecision" transform="matrix(2.9297,0,0,2.9297,-873.0469,714.8438)" stroke="rgb(255,226,252)">
      <rect x="384.4271" y="-216.8463" clip-path="url(#clipPath2)" width="59.5344" rx="4" ry="4" height="23.984" stroke="none"/>
    </g>
    <g stroke-linecap="butt" transform="matrix(2.9297,0,0,2.9297,-873.0469,714.8438)" fill="maroon" text-rendering="geometricPrecision" shape-rendering="geometricPrecision" stroke="maroon" stroke-miterlimit="1.45">
      <rect x="384.4271" y="-216.8463" clip-path="url(#clipPath2)" fill="none" width="59.5344" rx="4" ry="4" height="23.984"/>
      <text x="390.5283" y="-200.1404" clip-path="url(#clipPath2)" font-family="sans-serif" stroke="none" font-weight="bold" xml:space="preserve">The Son</text>
    </g>
    <g fill="rgb(255,226,252)" text-rendering="geometricPrecision" shape-rendering="geometricPrecision" transform="matrix(2.9297,0,0,2.9297,-873.0469,714.8438)" stroke="rgb(255,226,252)">
      <rect x="380.7265" y="-159.9131" clip-path="url(#clipPath2)" width="60.4507" rx="4" ry="4" height="27.0509" stroke="none"/>
    </g>
    <g stroke-linecap="butt" transform="matrix(2.9297,0,0,2.9297,-873.0469,714.8438)" fill="maroon" text-rendering="geometricPrecision" shape-rendering="geometricPrecision" stroke="maroon" stroke-miterlimit="1.45">
      <rect x="380.7265" y="-159.9131" clip-path="url(#clipPath2)" fill="none" width="60.4507" rx="4" ry="4" height="27.0509"/>
      <text x="391.6218" y="-149.0244" clip-path="url(#clipPath2)" font-family="sans-serif" stroke="none" font-weight="bold" xml:space="preserve">Mighty</text>
      <text x="397.2849" y="-134.3233" clip-path="url(#clipPath2)" font-family="sans-serif" stroke="none" font-weight="bold" xml:space="preserve">GOD</text>
    </g>
    <g fill="rgb(255,226,252)" text-rendering="geometricPrecision" shape-rendering="geometricPrecision" transform="matrix(2.9297,0,0,2.9297,-873.0469,714.8438)" stroke="rgb(255,226,252)">
      <rect x="375.158" y="-99.9131" clip-path="url(#clipPath2)" width="66.0192" rx="4" ry="4" height="27.0509" stroke="none"/>
    </g>
    <g stroke-linecap="butt" transform="matrix(2.9297,0,0,2.9297,-873.0469,714.8438)" fill="maroon" text-rendering="geometricPrecision" shape-rendering="geometricPrecision" stroke="maroon" stroke-miterlimit="1.45">
      <rect x="375.158" y="-99.9131" clip-path="url(#clipPath2)" fill="none" width="66.0192" rx="4" ry="4" height="27.0509"/>
      <text x="394.5006" y="-81.6738" clip-path="url(#clipPath2)" font-family="sans-serif" stroke="none" font-weight="bold" xml:space="preserve">GOD</text>
    </g>
    <g fill="rgb(240,240,240)" text-rendering="geometricPrecision" shape-rendering="geometricPrecision" transform="matrix(2.9297,0,0,2.9297,-873.0469,714.8438)" stroke="rgb(240,240,240)">
      <rect x="309.934" y="-99.9131" clip-path="url(#clipPath2)" width="65.224" rx="4" ry="4" height="27.0509" stroke="none"/>
    </g>
    <g text-rendering="geometricPrecision" stroke-miterlimit="1.45" shape-rendering="geometricPrecision" transform="matrix(2.9297,0,0,2.9297,-873.0469,714.8438)" stroke-linecap="butt">
      <rect x="309.934" y="-99.9131" clip-path="url(#clipPath2)" fill="none" width="65.224" rx="4" ry="4" height="27.0509"/>
      <text x="320.216" y="-81.6738" clip-path="url(#clipPath2)" font-family="sans-serif" stroke="none" font-weight="bold" xml:space="preserve">With Us</text>
    </g>
    <g fill="rgb(255,226,252)" text-rendering="geometricPrecision" shape-rendering="geometricPrecision" transform="matrix(2.9297,0,0,2.9297,-873.0469,714.8438)" stroke="rgb(255,226,252)">
      <rect x="375.158" y="-61.4565" clip-path="url(#clipPath2)" width="66.0192" rx="4" ry="4" height="30" stroke="none"/>
    </g>
    <g stroke-linecap="butt" transform="matrix(2.9297,0,0,2.9297,-873.0469,714.8438)" fill="maroon" text-rendering="geometricPrecision" shape-rendering="geometricPrecision" stroke="maroon" stroke-miterlimit="1.45">
      <rect x="375.158" y="-61.4565" clip-path="url(#clipPath2)" fill="none" width="66.0192" rx="4" ry="4" height="30"/>
      <text x="402.4987" y="-41.7427" clip-path="url(#clipPath2)" font-family="sans-serif" stroke="none" font-weight="bold" xml:space="preserve">El</text>
    </g>
    <g fill="rgb(240,240,240)" text-rendering="geometricPrecision" shape-rendering="geometricPrecision" transform="matrix(2.9297,0,0,2.9297,-873.0469,714.8438)" stroke="rgb(240,240,240)">
      <rect x="309.934" y="-61.4565" clip-path="url(#clipPath2)" width="65.224" rx="4" ry="4" height="30" stroke="none"/>
    </g>
    <g text-rendering="geometricPrecision" stroke-miterlimit="1.45" shape-rendering="geometricPrecision" transform="matrix(2.9297,0,0,2.9297,-873.0469,714.8438)" stroke-linecap="butt">
      <rect x="309.934" y="-61.4565" clip-path="url(#clipPath2)" fill="none" width="65.224" rx="4" ry="4" height="30"/>
      <text x="315.2091" y="-41.7427" clip-path="url(#clipPath2)" font-family="sans-serif" stroke="none" font-weight="bold" xml:space="preserve">Emmanu-</text>
    </g>
    <g fill="rgb(255,226,252)" text-rendering="geometricPrecision" shape-rendering="geometricPrecision" transform="matrix(2.9297,0,0,2.9297,-873.0469,714.8438)" stroke="rgb(255,226,252)">
      <rect x="377.9423" y="-162.8623" clip-path="url(#clipPath2)" width="66.0192" rx="4" ry="4" height="30" stroke="none"/>
    </g>
    <g stroke-linecap="butt" transform="matrix(2.9297,0,0,2.9297,-873.0469,714.8438)" fill="maroon" text-rendering="geometricPrecision" shape-rendering="geometricPrecision" stroke="maroon" stroke-miterlimit="1.45">
      <rect x="377.9423" y="-162.8623" clip-path="url(#clipPath2)" fill="none" width="66.0192" rx="4" ry="4" height="30"/>
      <text x="391.6218" y="-150.499" clip-path="url(#clipPath2)" font-family="sans-serif" stroke="none" font-weight="bold" xml:space="preserve">Mighty</text>
      <text x="397.2849" y="-135.7978" clip-path="url(#clipPath2)" font-family="sans-serif" stroke="none" font-weight="bold" xml:space="preserve">GOD</text>
    </g>
    <g fill="rgb(240,240,240)" text-rendering="geometricPrecision" shape-rendering="geometricPrecision" transform="matrix(2.9297,0,0,2.9297,-873.0469,714.8438)" stroke="rgb(240,240,240)">
      <rect x="306.9726" y="-162.8623" clip-path="url(#clipPath2)" width="65.224" rx="4" ry="4" height="30" stroke="none"/>
    </g>
    <g text-rendering="geometricPrecision" stroke-miterlimit="1.45" shape-rendering="geometricPrecision" transform="matrix(2.9297,0,0,2.9297,-873.0469,714.8438)" stroke-linecap="butt">
      <rect x="306.9726" y="-162.8623" clip-path="url(#clipPath2)" fill="none" width="65.224" rx="4" ry="4" height="30"/>
      <text x="312.2272" y="-143.1484" clip-path="url(#clipPath2)" font-family="sans-serif" stroke="none" font-weight="bold" xml:space="preserve">"To Us..."</text>
    </g>
    <g fill="rgb(240,240,240)" text-rendering="geometricPrecision" shape-rendering="geometricPrecision" transform="matrix(2.9297,0,0,2.9297,-873.0469,714.8438)" stroke="rgb(240,240,240)">
      <rect x="309.934" y="-61.4565" clip-path="url(#clipPath2)" width="65.224" rx="4" ry="4" height="30" stroke="none"/>
    </g>
    <g text-rendering="geometricPrecision" stroke-miterlimit="1.45" shape-rendering="geometricPrecision" transform="matrix(2.9297,0,0,2.9297,-873.0469,714.8438)" stroke-linecap="butt">
      <rect x="309.934" y="-61.4565" clip-path="url(#clipPath2)" fill="none" width="65.224" rx="4" ry="4" height="30"/>
      <text x="315.2091" y="-41.7427" clip-path="url(#clipPath2)" font-family="sans-serif" stroke="none" font-weight="bold" xml:space="preserve">Emmanu-</text>
    </g>
    <g fill="rgb(255,226,252)" text-rendering="geometricPrecision" shape-rendering="geometricPrecision" transform="matrix(2.9297,0,0,2.9297,-873.0469,714.8438)" stroke="rgb(255,226,252)">
      <rect x="375.158" y="-61.4565" clip-path="url(#clipPath2)" width="66.0192" rx="4" ry="4" height="30" stroke="none"/>
    </g>
    <g stroke-linecap="butt" transform="matrix(2.9297,0,0,2.9297,-873.0469,714.8438)" fill="maroon" text-rendering="geometricPrecision" shape-rendering="geometricPrecision" stroke="maroon" stroke-miterlimit="1.45">
      <rect x="375.158" y="-61.4565" clip-path="url(#clipPath2)" fill="none" width="66.0192" rx="4" ry="4" height="30"/>
      <text x="402.4987" y="-41.7427" clip-path="url(#clipPath2)" font-family="sans-serif" stroke="none" font-weight="bold" xml:space="preserve">El</text>
    </g>
    <g fill="rgb(240,240,240)" text-rendering="geometricPrecision" shape-rendering="geometricPrecision" transform="matrix(2.9297,0,0,2.9297,-873.0469,714.8438)" stroke="rgb(240,240,240)">
      <rect x="309.934" y="-102.8623" clip-path="url(#clipPath2)" width="65.224" rx="4" ry="4" height="30" stroke="none"/>
    </g>
    <g text-rendering="geometricPrecision" stroke-miterlimit="1.45" shape-rendering="geometricPrecision" transform="matrix(2.9297,0,0,2.9297,-873.0469,714.8438)" stroke-linecap="butt">
      <rect x="309.934" y="-102.8623" clip-path="url(#clipPath2)" fill="none" width="65.224" rx="4" ry="4" height="30"/>
      <text x="320.216" y="-83.1484" clip-path="url(#clipPath2)" font-family="sans-serif" stroke="none" font-weight="bold" xml:space="preserve">With Us</text>
    </g>
    <g fill="rgb(255,226,252)" text-rendering="geometricPrecision" shape-rendering="geometricPrecision" transform="matrix(2.9297,0,0,2.9297,-873.0469,714.8438)" stroke="rgb(255,226,252)">
      <rect x="375.158" y="-102.8623" clip-path="url(#clipPath2)" width="66.0192" rx="4" ry="4" height="30" stroke="none"/>
    </g>
    <g stroke-linecap="butt" transform="matrix(2.9297,0,0,2.9297,-873.0469,714.8438)" fill="maroon" text-rendering="geometricPrecision" shape-rendering="geometricPrecision" stroke="maroon" stroke-miterlimit="1.45">
      <rect x="375.158" y="-102.8623" clip-path="url(#clipPath2)" fill="none" width="66.0192" rx="4" ry="4" height="30"/>
      <text x="394.5006" y="-83.1484" clip-path="url(#clipPath2)" font-family="sans-serif" stroke="none" font-weight="bold" xml:space="preserve">GOD</text>
    </g>
    <g fill="rgb(255,226,252)" text-rendering="geometricPrecision" shape-rendering="geometricPrecision" transform="matrix(2.9297,0,0,2.9297,-873.0469,714.8438)" stroke="rgb(255,226,252)">
      <rect x="384.4271" y="-240.8303" clip-path="url(#clipPath2)" width="59.5344" rx="4" ry="4" height="23.984" stroke="none"/>
    </g>
    <g stroke-linecap="butt" transform="matrix(2.9297,0,0,2.9297,-873.0469,714.8438)" fill="maroon" text-rendering="geometricPrecision" shape-rendering="geometricPrecision" stroke="maroon" stroke-miterlimit="1.45">
      <rect x="384.4271" y="-240.8303" clip-path="url(#clipPath2)" fill="none" width="59.5344" rx="4" ry="4" height="23.984"/>
      <text x="386.8633" y="-224.1244" clip-path="url(#clipPath2)" font-family="sans-serif" stroke="none" font-weight="bold" xml:space="preserve">The Child</text>
    </g>
    <g fill="rgb(255,226,252)" text-rendering="geometricPrecision" shape-rendering="geometricPrecision" transform="matrix(2.9297,0,0,2.9297,-873.0469,714.8438)" stroke="rgb(255,226,252)">
      <rect x="384.4271" y="-216.8463" clip-path="url(#clipPath2)" width="59.5344" rx="4" ry="4" height="23.984" stroke="none"/>
    </g>
    <g stroke-linecap="butt" transform="matrix(2.9297,0,0,2.9297,-873.0469,714.8438)" fill="maroon" text-rendering="geometricPrecision" shape-rendering="geometricPrecision" stroke="maroon" stroke-miterlimit="1.45">
      <rect x="384.4271" y="-216.8463" clip-path="url(#clipPath2)" fill="none" width="59.5344" rx="4" ry="4" height="23.984"/>
      <text x="390.5283" y="-200.1404" clip-path="url(#clipPath2)" font-family="sans-serif" stroke="none" font-weight="bold" xml:space="preserve">The Son</text>
    </g>
    <g fill="rgb(240,240,240)" text-rendering="geometricPrecision" shape-rendering="geometricPrecision" transform="matrix(2.9297,0,0,2.9297,-873.0469,714.8438)" stroke="rgb(240,240,240)">
      <rect x="301.9244" y="-240.8303" clip-path="url(#clipPath2)" width="59.5344" rx="4" ry="4" height="23.984" stroke="none"/>
    </g>
    <g text-rendering="geometricPrecision" stroke-miterlimit="1.45" shape-rendering="geometricPrecision" transform="matrix(2.9297,0,0,2.9297,-873.0469,714.8438)" stroke-linecap="butt">
      <rect x="301.9244" y="-240.8303" clip-path="url(#clipPath2)" fill="none" width="59.5344" rx="4" ry="4" height="23.984"/>
      <text x="312.0042" y="-224.1244" clip-path="url(#clipPath2)" font-family="sans-serif" stroke="none" font-weight="bold" xml:space="preserve">"Born"</text>
    </g>
    <g fill="rgb(240,240,240)" text-rendering="geometricPrecision" shape-rendering="geometricPrecision" transform="matrix(2.9297,0,0,2.9297,-873.0469,714.8438)" stroke="rgb(240,240,240)">
      <rect x="301.9244" y="-216.8463" clip-path="url(#clipPath2)" width="59.5344" rx="4" ry="4" height="23.984" stroke="none"/>
    </g>
    <g text-rendering="geometricPrecision" stroke-miterlimit="1.45" shape-rendering="geometricPrecision" transform="matrix(2.9297,0,0,2.9297,-873.0469,714.8438)" stroke-linecap="butt">
      <rect x="301.9244" y="-216.8463" clip-path="url(#clipPath2)" fill="none" width="59.5344" rx="4" ry="4" height="23.984"/>
      <text x="309.3293" y="-200.1404" clip-path="url(#clipPath2)" font-family="sans-serif" stroke="none" font-weight="bold" xml:space="preserve">"Given"</text>
      <path fill="none" d="M331.6917 -192.8647 L331.6917 -187.9433 L339.5846 -180.6323 L339.5846 -173.9317" stroke-width="7" clip-path="url(#clipPath2)" stroke="white"/>
      <path fill="white" d="M339.5846 -159.9317 L348.3346 -180.9317 L339.5846 -175.6817 L330.8346 -180.9317 Z" stroke-width="7" clip-path="url(#clipPath2)" stroke="none"/>
      <path fill="none" d="M384.424 -228.0201 L361.4824 -228.3761" stroke-width="7" clip-path="url(#clipPath2)" stroke="white"/>
      <path fill="none" d="M384.424 -204.8543 L361.4824 -204.8543" stroke-width="7" clip-path="url(#clipPath2)" stroke="white"/>
      <path fill="none" d="M414.1943 -192.8376 L414.1943 -186.8116 L410.9519 -180.9281 L410.9519 -173.9138" stroke-width="7" clip-path="url(#clipPath2)" stroke="white"/>
      <path fill="white" d="M410.9519 -159.9138 L419.7019 -180.9138 L410.9519 -175.6638 L402.2019 -180.9138 Z" stroke-width="7" clip-path="url(#clipPath2)" stroke="none"/>
      <path fill="none" d="M410.9519 -132.8802 L410.9519 -129.803 L408.1676 -120.6851 L408.1676 -113.8856" stroke-width="7" clip-path="url(#clipPath2)" stroke="white"/>
      <path fill="white" d="M408.1676 -99.8856 L416.9176 -120.8856 L408.1676 -115.6356 L399.4176 -120.8856 Z" stroke-width="7" clip-path="url(#clipPath2)" stroke="none"/>
      <path fill="none" d="M339.5846 -132.8342 L339.5846 -130.7232 L342.5461 -120.6851 L342.5461 -113.8856" stroke-width="7" clip-path="url(#clipPath2)" stroke="white"/>
      <path fill="white" d="M342.5461 -99.8856 L351.2961 -120.8856 L342.5461 -115.6356 L333.7961 -120.8856 Z" stroke-width="7" clip-path="url(#clipPath2)" stroke="none"/>
      <path fill="none" d="M408.1676 -72.8563 L408.1676 -61.4353" stroke-width="7" clip-path="url(#clipPath2)" stroke="white"/>
      <path fill="none" d="M342.5461 -72.8563 L342.5461 -61.4353" stroke-width="7" clip-path="url(#clipPath2)" stroke="white"/>
      <path fill="none" d="M339.5846 -132.8321 L339.5846 -130.7232 L342.5461 -120.6851 L342.5461 -113.8313" stroke-width="4" clip-path="url(#clipPath2)"/>
      <path d="M342.5461 -102.8313 L349.4211 -119.3313 L342.5461 -115.2063 L335.6711 -119.3313 Z" stroke-width="4" clip-path="url(#clipPath2)" stroke="none"/>
      <path fill="none" d="M342.5461 -72.8608 L342.5461 -61.4379" stroke-width="4" clip-path="url(#clipPath2)"/>
      <path fill="none" d="M410.9519 -132.8717 L410.9519 -129.803 L408.1676 -120.6851 L408.1676 -113.8313" stroke-width="4" clip-path="url(#clipPath2)" stroke="maroon"/>
      <path fill="maroon" d="M408.1676 -102.8313 L415.0426 -119.3313 L408.1676 -115.2063 L401.2926 -119.3313 Z" stroke-width="4" clip-path="url(#clipPath2)" stroke="none"/>
      <path fill="none" d="M408.1676 -72.8608 L408.1676 -61.4379" stroke-width="4" clip-path="url(#clipPath2)" stroke="maroon"/>
      <path fill="none" d="M414.1943 -192.8376 L414.1943 -186.8116 L410.9519 -180.9281 L410.9519 -173.8775" stroke-width="4" clip-path="url(#clipPath2)" stroke="maroon"/>
      <path fill="maroon" d="M410.9519 -162.8775 L417.8269 -179.3775 L410.9519 -175.2525 L404.0769 -179.3775 Z" stroke-width="4" clip-path="url(#clipPath2)" stroke="none"/>
      <path fill="none" d="M384.424 -228.8383 L361.4824 -228.8383" stroke-width="4" clip-path="url(#clipPath2)" stroke="maroon"/>
      <path fill="none" d="M384.424 -204.8543 L361.4824 -204.8543" stroke-width="4" clip-path="url(#clipPath2)" stroke="maroon"/>
      <path fill="none" d="M331.6917 -192.8647 L331.6917 -187.9433 L339.5846 -180.6323 L339.5846 -173.8712" stroke-width="4" clip-path="url(#clipPath2)"/>
      <path d="M339.5846 -162.8712 L346.4596 -179.3712 L339.5846 -175.2462 L332.7096 -179.3712 Z" stroke-width="4" clip-path="url(#clipPath2)" stroke="none"/>
    </g>
  </g>
</svg>
