<?xml version="1.0" encoding="UTF-8"?><svg xmlns="http://www.w3.org/2000/svg" xmlns:xlink="http://www.w3.org/1999/xlink" fill-opacity="1" color-rendering="auto" color-interpolation="auto" text-rendering="auto" stroke="black" stroke-linecap="square" width="210" stroke-miterlimit="10" shape-rendering="auto" stroke-opacity="1" fill="black" stroke-dasharray="none" font-weight="normal" stroke-width="1" height="635" font-family="'Dialog'" font-style="normal" stroke-linejoin="miter" font-size="12px" stroke-dashoffset="0" image-rendering="auto">
  <!--Generated by ySVG 2.6-->
  <defs id="genericDefs"/>
  <g>
    <defs id="defs1">
      <clipPath clipPathUnits="userSpaceOnUse" id="clipPath1">
        <path d="M0 0 L210 0 L210 635 L0 635 L0 0 Z"/>
      </clipPath>
      <clipPath clipPathUnits="userSpaceOnUse" id="clipPath2">
        <path d="M288 -510 L456 -510 L456 -2 L288 -2 L288 -510 Z"/>
      </clipPath>
    </defs>
    <g fill="rgb(240,240,240)" text-rendering="geometricPrecision" shape-rendering="geometricPrecision" transform="matrix(1.25,0,0,1.25,-360,637.5)" stroke="rgb(240,240,240)">
      <rect x="306.9726" y="-478.7294" clip-path="url(#clipPath2)" width="131.2432" rx="4" ry="4" height="47.968" stroke="none"/>
    </g>
    <g text-rendering="geometricPrecision" stroke-miterlimit="1.45" shape-rendering="geometricPrecision" transform="matrix(1.25,0,0,1.25,-360,637.5)" stroke-linecap="butt">
      <rect x="306.9726" y="-478.7294" clip-path="url(#clipPath2)" fill="none" width="131.2432" rx="4" ry="4" height="47.968"/>
      <text x="324.2573" y="-450.0316" clip-path="url(#clipPath2)" font-family="sans-serif" stroke="none" font-weight="bold" xml:space="preserve">Angel of Yahweh</text>
    </g>
    <g fill="rgb(240,240,240)" text-rendering="geometricPrecision" shape-rendering="geometricPrecision" transform="matrix(1.25,0,0,1.25,-360,637.5)" stroke="rgb(240,240,240)">
      <rect x="309.934" y="-400.7614" clip-path="url(#clipPath2)" width="59.3012" rx="4" ry="4" height="27.0509" stroke="none"/>
    </g>
    <g text-rendering="geometricPrecision" stroke-miterlimit="1.45" shape-rendering="geometricPrecision" transform="matrix(1.25,0,0,1.25,-360,637.5)" stroke-linecap="butt">
      <rect x="309.934" y="-400.7614" clip-path="url(#clipPath2)" fill="none" width="59.3012" rx="4" ry="4" height="27.0509"/>
      <text x="312.2272" y="-382.5221" clip-path="url(#clipPath2)" font-family="sans-serif" stroke="none" font-weight="bold" xml:space="preserve">"To Us..."</text>
    </g>
    <g fill="rgb(255,226,252)" text-rendering="geometricPrecision" shape-rendering="geometricPrecision" transform="matrix(1.25,0,0,1.25,-360,637.5)" stroke="rgb(255,226,252)">
      <rect x="380.7265" y="-400.7614" clip-path="url(#clipPath2)" width="60.4507" rx="4" ry="4" height="27.0509" stroke="none"/>
    </g>
    <g stroke-linecap="butt" transform="matrix(1.25,0,0,1.25,-360,637.5)" fill="maroon" text-rendering="geometricPrecision" shape-rendering="geometricPrecision" stroke="maroon" stroke-miterlimit="1.45">
      <rect x="380.7265" y="-400.7614" clip-path="url(#clipPath2)" fill="none" width="60.4507" rx="4" ry="4" height="27.0509"/>
      <text x="391.6218" y="-389.8727" clip-path="url(#clipPath2)" font-family="sans-serif" stroke="none" font-weight="bold" xml:space="preserve">Mighty</text>
      <text x="397.2849" y="-375.1715" clip-path="url(#clipPath2)" font-family="sans-serif" stroke="none" font-weight="bold" xml:space="preserve">GOD</text>
    </g>
    <g fill="rgb(255,226,252)" text-rendering="geometricPrecision" shape-rendering="geometricPrecision" transform="matrix(1.25,0,0,1.25,-360,637.5)" stroke="rgb(255,226,252)">
      <rect x="375.158" y="-340.7614" clip-path="url(#clipPath2)" width="66.0192" rx="4" ry="4" height="27.0509" stroke="none"/>
    </g>
    <g stroke-linecap="butt" transform="matrix(1.25,0,0,1.25,-360,637.5)" fill="maroon" text-rendering="geometricPrecision" shape-rendering="geometricPrecision" stroke="maroon" stroke-miterlimit="1.45">
      <rect x="375.158" y="-340.7614" clip-path="url(#clipPath2)" fill="none" width="66.0192" rx="4" ry="4" height="27.0509"/>
      <text x="394.5006" y="-322.5221" clip-path="url(#clipPath2)" font-family="sans-serif" stroke="none" font-weight="bold" xml:space="preserve">GOD</text>
    </g>
    <g fill="rgb(240,240,240)" text-rendering="geometricPrecision" shape-rendering="geometricPrecision" transform="matrix(1.25,0,0,1.25,-360,637.5)" stroke="rgb(240,240,240)">
      <rect x="309.934" y="-340.7614" clip-path="url(#clipPath2)" width="65.224" rx="4" ry="4" height="27.0509" stroke="none"/>
    </g>
    <g text-rendering="geometricPrecision" stroke-miterlimit="1.45" shape-rendering="geometricPrecision" transform="matrix(1.25,0,0,1.25,-360,637.5)" stroke-linecap="butt">
      <rect x="309.934" y="-340.7614" clip-path="url(#clipPath2)" fill="none" width="65.224" rx="4" ry="4" height="27.0509"/>
      <text x="320.216" y="-322.5221" clip-path="url(#clipPath2)" font-family="sans-serif" stroke="none" font-weight="bold" xml:space="preserve">With Us</text>
    </g>
    <g fill="rgb(255,226,252)" text-rendering="geometricPrecision" shape-rendering="geometricPrecision" transform="matrix(1.25,0,0,1.25,-360,637.5)" stroke="rgb(255,226,252)">
      <rect x="375.158" y="-302.3048" clip-path="url(#clipPath2)" width="66.0192" rx="4" ry="4" height="30" stroke="none"/>
    </g>
    <g stroke-linecap="butt" transform="matrix(1.25,0,0,1.25,-360,637.5)" fill="maroon" text-rendering="geometricPrecision" shape-rendering="geometricPrecision" stroke="maroon" stroke-miterlimit="1.45">
      <rect x="375.158" y="-302.3048" clip-path="url(#clipPath2)" fill="none" width="66.0192" rx="4" ry="4" height="30"/>
      <text x="402.4987" y="-282.591" clip-path="url(#clipPath2)" font-family="sans-serif" stroke="none" font-weight="bold" xml:space="preserve">El</text>
    </g>
    <g fill="rgb(240,240,240)" text-rendering="geometricPrecision" shape-rendering="geometricPrecision" transform="matrix(1.25,0,0,1.25,-360,637.5)" stroke="rgb(240,240,240)">
      <rect x="309.934" y="-302.3048" clip-path="url(#clipPath2)" width="65.224" rx="4" ry="4" height="30" stroke="none"/>
    </g>
    <g text-rendering="geometricPrecision" stroke-miterlimit="1.45" shape-rendering="geometricPrecision" transform="matrix(1.25,0,0,1.25,-360,637.5)" stroke-linecap="butt">
      <rect x="309.934" y="-302.3048" clip-path="url(#clipPath2)" fill="none" width="65.224" rx="4" ry="4" height="30"/>
      <text x="315.2091" y="-282.591" clip-path="url(#clipPath2)" font-family="sans-serif" stroke="none" font-weight="bold" xml:space="preserve">Emmanu-</text>
    </g>
    <g fill="rgb(255,226,252)" text-rendering="geometricPrecision" shape-rendering="geometricPrecision" transform="matrix(1.25,0,0,1.25,-360,637.5)" stroke="rgb(255,226,252)">
      <rect x="375.158" y="-343.7105" clip-path="url(#clipPath2)" width="66.0192" rx="4" ry="4" height="30" stroke="none"/>
    </g>
    <g stroke-linecap="butt" transform="matrix(1.25,0,0,1.25,-360,637.5)" fill="maroon" text-rendering="geometricPrecision" shape-rendering="geometricPrecision" stroke="maroon" stroke-miterlimit="1.45">
      <rect x="375.158" y="-343.7105" clip-path="url(#clipPath2)" fill="none" width="66.0192" rx="4" ry="4" height="30"/>
      <text x="394.5006" y="-323.9967" clip-path="url(#clipPath2)" font-family="sans-serif" stroke="none" font-weight="bold" xml:space="preserve">GOD</text>
    </g>
    <g fill="rgb(240,240,240)" text-rendering="geometricPrecision" shape-rendering="geometricPrecision" transform="matrix(1.25,0,0,1.25,-360,637.5)" stroke="rgb(240,240,240)">
      <rect x="309.934" y="-343.7105" clip-path="url(#clipPath2)" width="65.224" rx="4" ry="4" height="30" stroke="none"/>
    </g>
    <g text-rendering="geometricPrecision" stroke-miterlimit="1.45" shape-rendering="geometricPrecision" transform="matrix(1.25,0,0,1.25,-360,637.5)" stroke-linecap="butt">
      <rect x="309.934" y="-343.7105" clip-path="url(#clipPath2)" fill="none" width="65.224" rx="4" ry="4" height="30"/>
      <text x="320.216" y="-323.9967" clip-path="url(#clipPath2)" font-family="sans-serif" stroke="none" font-weight="bold" xml:space="preserve">With Us</text>
    </g>
    <g fill="rgb(255,226,252)" text-rendering="geometricPrecision" shape-rendering="geometricPrecision" transform="matrix(1.25,0,0,1.25,-360,637.5)" stroke="rgb(255,226,252)">
      <rect x="375.158" y="-302.3048" clip-path="url(#clipPath2)" width="66.0192" rx="4" ry="4" height="30" stroke="none"/>
    </g>
    <g stroke-linecap="butt" transform="matrix(1.25,0,0,1.25,-360,637.5)" fill="maroon" text-rendering="geometricPrecision" shape-rendering="geometricPrecision" stroke="maroon" stroke-miterlimit="1.45">
      <rect x="375.158" y="-302.3048" clip-path="url(#clipPath2)" fill="none" width="66.0192" rx="4" ry="4" height="30"/>
      <text x="402.4987" y="-282.591" clip-path="url(#clipPath2)" font-family="sans-serif" stroke="none" font-weight="bold" xml:space="preserve">El</text>
    </g>
    <g fill="rgb(240,240,240)" text-rendering="geometricPrecision" shape-rendering="geometricPrecision" transform="matrix(1.25,0,0,1.25,-360,637.5)" stroke="rgb(240,240,240)">
      <rect x="309.934" y="-302.3048" clip-path="url(#clipPath2)" width="65.224" rx="4" ry="4" height="30" stroke="none"/>
    </g>
    <g text-rendering="geometricPrecision" stroke-miterlimit="1.45" shape-rendering="geometricPrecision" transform="matrix(1.25,0,0,1.25,-360,637.5)" stroke-linecap="butt">
      <rect x="309.934" y="-302.3048" clip-path="url(#clipPath2)" fill="none" width="65.224" rx="4" ry="4" height="30"/>
      <text x="315.2091" y="-282.591" clip-path="url(#clipPath2)" font-family="sans-serif" stroke="none" font-weight="bold" xml:space="preserve">Emmanu-</text>
    </g>
    <g fill="rgb(240,240,240)" text-rendering="geometricPrecision" shape-rendering="geometricPrecision" transform="matrix(1.25,0,0,1.25,-360,637.5)" stroke="rgb(240,240,240)">
      <rect x="306.9726" y="-403.7105" clip-path="url(#clipPath2)" width="65.224" rx="4" ry="4" height="30" stroke="none"/>
    </g>
    <g text-rendering="geometricPrecision" stroke-miterlimit="1.45" shape-rendering="geometricPrecision" transform="matrix(1.25,0,0,1.25,-360,637.5)" stroke-linecap="butt">
      <rect x="306.9726" y="-403.7105" clip-path="url(#clipPath2)" fill="none" width="65.224" rx="4" ry="4" height="30"/>
      <text x="312.2272" y="-383.9967" clip-path="url(#clipPath2)" font-family="sans-serif" stroke="none" font-weight="bold" xml:space="preserve">"To Us..."</text>
    </g>
    <g fill="rgb(255,226,252)" text-rendering="geometricPrecision" shape-rendering="geometricPrecision" transform="matrix(1.25,0,0,1.25,-360,637.5)" stroke="rgb(255,226,252)">
      <rect x="377.9423" y="-403.7105" clip-path="url(#clipPath2)" width="66.0192" rx="4" ry="4" height="30" stroke="none"/>
    </g>
    <g stroke-linecap="butt" transform="matrix(1.25,0,0,1.25,-360,637.5)" fill="maroon" text-rendering="geometricPrecision" shape-rendering="geometricPrecision" stroke="maroon" stroke-miterlimit="1.45">
      <rect x="377.9423" y="-403.7105" clip-path="url(#clipPath2)" fill="none" width="66.0192" rx="4" ry="4" height="30"/>
      <text x="391.6218" y="-391.3473" clip-path="url(#clipPath2)" font-family="sans-serif" stroke="none" font-weight="bold" xml:space="preserve">Mighty</text>
      <text x="397.2849" y="-376.6461" clip-path="url(#clipPath2)" font-family="sans-serif" stroke="none" font-weight="bold" xml:space="preserve">GOD</text>
    </g>
    <g fill="white" text-rendering="geometricPrecision" shape-rendering="geometricPrecision" transform="matrix(1.25,0,0,1.25,-360,637.5)" stroke="white">
      <rect x="304.0998" y="-478.7294" clip-path="url(#clipPath2)" width="136.9889" rx="4" ry="4" height="47.968" stroke="none"/>
    </g>
    <g stroke-linecap="butt" transform="matrix(1.25,0,0,1.25,-360,637.5)" fill="rgb(51,51,153)" text-rendering="geometricPrecision" shape-rendering="geometricPrecision" stroke="rgb(51,51,153)" stroke-miterlimit="1.45">
      <rect x="304.0998" y="-478.7294" clip-path="url(#clipPath2)" fill="none" width="136.9889" rx="4" ry="4" height="47.968"/>
      <text x="312.1731" font-size="15px" y="-448.8531" clip-path="url(#clipPath2)" font-family="sans-serif" stroke="none" font-weight="bold" xml:space="preserve">Angel of Yahweh</text>
    </g>
    <g fill="rgb(255,226,252)" text-rendering="geometricPrecision" shape-rendering="geometricPrecision" transform="matrix(1.25,0,0,1.25,-360,637.5)" stroke="rgb(255,226,252)">
      <rect x="384.4271" y="-238.2703" clip-path="url(#clipPath2)" width="59.5344" rx="4" ry="4" height="21.424" stroke="none"/>
    </g>
    <g stroke-linecap="butt" transform="matrix(1.25,0,0,1.25,-360,637.5)" fill="maroon" text-rendering="geometricPrecision" shape-rendering="geometricPrecision" stroke="maroon" stroke-miterlimit="1.45">
      <rect x="384.4271" y="-238.2703" clip-path="url(#clipPath2)" fill="none" width="59.5344" rx="4" ry="4" height="21.424"/>
      <text x="386.8633" y="-222.8444" clip-path="url(#clipPath2)" font-family="sans-serif" stroke="none" font-weight="bold" xml:space="preserve">The Child</text>
    </g>
    <g fill="rgb(240,240,240)" text-rendering="geometricPrecision" shape-rendering="geometricPrecision" transform="matrix(1.25,0,0,1.25,-360,637.5)" stroke="rgb(240,240,240)">
      <rect x="309.934" y="-159.9131" clip-path="url(#clipPath2)" width="59.3012" rx="4" ry="4" height="27.0509" stroke="none"/>
    </g>
    <g text-rendering="geometricPrecision" stroke-miterlimit="1.45" shape-rendering="geometricPrecision" transform="matrix(1.25,0,0,1.25,-360,637.5)" stroke-linecap="butt">
      <rect x="309.934" y="-159.9131" clip-path="url(#clipPath2)" fill="none" width="59.3012" rx="4" ry="4" height="27.0509"/>
      <text x="312.2272" y="-141.6738" clip-path="url(#clipPath2)" font-family="sans-serif" stroke="none" font-weight="bold" xml:space="preserve">"To Us..."</text>
    </g>
    <g fill="rgb(240,240,240)" text-rendering="geometricPrecision" shape-rendering="geometricPrecision" transform="matrix(1.25,0,0,1.25,-360,637.5)" stroke="rgb(240,240,240)">
      <rect x="301.9244" y="-216.8463" clip-path="url(#clipPath2)" width="59.5344" rx="4" ry="4" height="23.984" stroke="none"/>
    </g>
    <g text-rendering="geometricPrecision" stroke-miterlimit="1.45" shape-rendering="geometricPrecision" transform="matrix(1.25,0,0,1.25,-360,637.5)" stroke-linecap="butt">
      <rect x="301.9244" y="-216.8463" clip-path="url(#clipPath2)" fill="none" width="59.5344" rx="4" ry="4" height="23.984"/>
      <text x="309.3293" y="-200.1404" clip-path="url(#clipPath2)" font-family="sans-serif" stroke="none" font-weight="bold" xml:space="preserve">"Given"</text>
    </g>
    <g fill="rgb(240,240,240)" text-rendering="geometricPrecision" shape-rendering="geometricPrecision" transform="matrix(1.25,0,0,1.25,-360,637.5)" stroke="rgb(240,240,240)">
      <rect x="301.9244" y="-240.8303" clip-path="url(#clipPath2)" width="59.5344" rx="4" ry="4" height="23.984" stroke="none"/>
    </g>
    <g text-rendering="geometricPrecision" stroke-miterlimit="1.45" shape-rendering="geometricPrecision" transform="matrix(1.25,0,0,1.25,-360,637.5)" stroke-linecap="butt">
      <rect x="301.9244" y="-240.8303" clip-path="url(#clipPath2)" fill="none" width="59.5344" rx="4" ry="4" height="23.984"/>
      <text x="312.0042" y="-224.1244" clip-path="url(#clipPath2)" font-family="sans-serif" stroke="none" font-weight="bold" xml:space="preserve">"Born"</text>
    </g>
    <g fill="rgb(255,226,252)" text-rendering="geometricPrecision" shape-rendering="geometricPrecision" transform="matrix(1.25,0,0,1.25,-360,637.5)" stroke="rgb(255,226,252)">
      <rect x="384.4271" y="-216.8463" clip-path="url(#clipPath2)" width="59.5344" rx="4" ry="4" height="23.984" stroke="none"/>
    </g>
    <g stroke-linecap="butt" transform="matrix(1.25,0,0,1.25,-360,637.5)" fill="maroon" text-rendering="geometricPrecision" shape-rendering="geometricPrecision" stroke="maroon" stroke-miterlimit="1.45">
      <rect x="384.4271" y="-216.8463" clip-path="url(#clipPath2)" fill="none" width="59.5344" rx="4" ry="4" height="23.984"/>
      <text x="390.5283" y="-200.1404" clip-path="url(#clipPath2)" font-family="sans-serif" stroke="none" font-weight="bold" xml:space="preserve">The Son</text>
    </g>
    <g fill="rgb(255,226,252)" text-rendering="geometricPrecision" shape-rendering="geometricPrecision" transform="matrix(1.25,0,0,1.25,-360,637.5)" stroke="rgb(255,226,252)">
      <rect x="380.7265" y="-159.9131" clip-path="url(#clipPath2)" width="60.4507" rx="4" ry="4" height="27.0509" stroke="none"/>
    </g>
    <g stroke-linecap="butt" transform="matrix(1.25,0,0,1.25,-360,637.5)" fill="maroon" text-rendering="geometricPrecision" shape-rendering="geometricPrecision" stroke="maroon" stroke-miterlimit="1.45">
      <rect x="380.7265" y="-159.9131" clip-path="url(#clipPath2)" fill="none" width="60.4507" rx="4" ry="4" height="27.0509"/>
      <text x="391.6218" y="-149.0244" clip-path="url(#clipPath2)" font-family="sans-serif" stroke="none" font-weight="bold" xml:space="preserve">Mighty</text>
      <text x="397.2849" y="-134.3233" clip-path="url(#clipPath2)" font-family="sans-serif" stroke="none" font-weight="bold" xml:space="preserve">GOD</text>
    </g>
    <g fill="rgb(255,226,252)" text-rendering="geometricPrecision" shape-rendering="geometricPrecision" transform="matrix(1.25,0,0,1.25,-360,637.5)" stroke="rgb(255,226,252)">
      <rect x="375.158" y="-99.9131" clip-path="url(#clipPath2)" width="66.0192" rx="4" ry="4" height="27.0509" stroke="none"/>
    </g>
    <g stroke-linecap="butt" transform="matrix(1.25,0,0,1.25,-360,637.5)" fill="maroon" text-rendering="geometricPrecision" shape-rendering="geometricPrecision" stroke="maroon" stroke-miterlimit="1.45">
      <rect x="375.158" y="-99.9131" clip-path="url(#clipPath2)" fill="none" width="66.0192" rx="4" ry="4" height="27.0509"/>
      <text x="394.5006" y="-81.6738" clip-path="url(#clipPath2)" font-family="sans-serif" stroke="none" font-weight="bold" xml:space="preserve">GOD</text>
    </g>
    <g fill="rgb(240,240,240)" text-rendering="geometricPrecision" shape-rendering="geometricPrecision" transform="matrix(1.25,0,0,1.25,-360,637.5)" stroke="rgb(240,240,240)">
      <rect x="309.934" y="-99.9131" clip-path="url(#clipPath2)" width="65.224" rx="4" ry="4" height="27.0509" stroke="none"/>
    </g>
    <g text-rendering="geometricPrecision" stroke-miterlimit="1.45" shape-rendering="geometricPrecision" transform="matrix(1.25,0,0,1.25,-360,637.5)" stroke-linecap="butt">
      <rect x="309.934" y="-99.9131" clip-path="url(#clipPath2)" fill="none" width="65.224" rx="4" ry="4" height="27.0509"/>
      <text x="320.216" y="-81.6738" clip-path="url(#clipPath2)" font-family="sans-serif" stroke="none" font-weight="bold" xml:space="preserve">With Us</text>
    </g>
    <g fill="rgb(255,226,252)" text-rendering="geometricPrecision" shape-rendering="geometricPrecision" transform="matrix(1.25,0,0,1.25,-360,637.5)" stroke="rgb(255,226,252)">
      <rect x="375.158" y="-61.4565" clip-path="url(#clipPath2)" width="66.0192" rx="4" ry="4" height="30" stroke="none"/>
    </g>
    <g stroke-linecap="butt" transform="matrix(1.25,0,0,1.25,-360,637.5)" fill="maroon" text-rendering="geometricPrecision" shape-rendering="geometricPrecision" stroke="maroon" stroke-miterlimit="1.45">
      <rect x="375.158" y="-61.4565" clip-path="url(#clipPath2)" fill="none" width="66.0192" rx="4" ry="4" height="30"/>
      <text x="402.4987" y="-41.7427" clip-path="url(#clipPath2)" font-family="sans-serif" stroke="none" font-weight="bold" xml:space="preserve">El</text>
    </g>
    <g fill="rgb(240,240,240)" text-rendering="geometricPrecision" shape-rendering="geometricPrecision" transform="matrix(1.25,0,0,1.25,-360,637.5)" stroke="rgb(240,240,240)">
      <rect x="309.934" y="-61.4565" clip-path="url(#clipPath2)" width="65.224" rx="4" ry="4" height="30" stroke="none"/>
    </g>
    <g text-rendering="geometricPrecision" stroke-miterlimit="1.45" shape-rendering="geometricPrecision" transform="matrix(1.25,0,0,1.25,-360,637.5)" stroke-linecap="butt">
      <rect x="309.934" y="-61.4565" clip-path="url(#clipPath2)" fill="none" width="65.224" rx="4" ry="4" height="30"/>
      <text x="315.2091" y="-41.7427" clip-path="url(#clipPath2)" font-family="sans-serif" stroke="none" font-weight="bold" xml:space="preserve">Emmanu-</text>
    </g>
    <g fill="rgb(255,226,252)" text-rendering="geometricPrecision" shape-rendering="geometricPrecision" transform="matrix(1.25,0,0,1.25,-360,637.5)" stroke="rgb(255,226,252)">
      <rect x="377.9423" y="-162.8623" clip-path="url(#clipPath2)" width="66.0192" rx="4" ry="4" height="30" stroke="none"/>
    </g>
    <g stroke-linecap="butt" transform="matrix(1.25,0,0,1.25,-360,637.5)" fill="maroon" text-rendering="geometricPrecision" shape-rendering="geometricPrecision" stroke="maroon" stroke-miterlimit="1.45">
      <rect x="377.9423" y="-162.8623" clip-path="url(#clipPath2)" fill="none" width="66.0192" rx="4" ry="4" height="30"/>
      <text x="391.6218" y="-150.499" clip-path="url(#clipPath2)" font-family="sans-serif" stroke="none" font-weight="bold" xml:space="preserve">Mighty</text>
      <text x="397.2849" y="-135.7978" clip-path="url(#clipPath2)" font-family="sans-serif" stroke="none" font-weight="bold" xml:space="preserve">GOD</text>
    </g>
    <g fill="rgb(240,240,240)" text-rendering="geometricPrecision" shape-rendering="geometricPrecision" transform="matrix(1.25,0,0,1.25,-360,637.5)" stroke="rgb(240,240,240)">
      <rect x="306.9726" y="-162.8623" clip-path="url(#clipPath2)" width="65.224" rx="4" ry="4" height="30" stroke="none"/>
    </g>
    <g text-rendering="geometricPrecision" stroke-miterlimit="1.45" shape-rendering="geometricPrecision" transform="matrix(1.25,0,0,1.25,-360,637.5)" stroke-linecap="butt">
      <rect x="306.9726" y="-162.8623" clip-path="url(#clipPath2)" fill="none" width="65.224" rx="4" ry="4" height="30"/>
      <text x="312.2272" y="-143.1484" clip-path="url(#clipPath2)" font-family="sans-serif" stroke="none" font-weight="bold" xml:space="preserve">"To Us..."</text>
    </g>
    <g fill="rgb(240,240,240)" text-rendering="geometricPrecision" shape-rendering="geometricPrecision" transform="matrix(1.25,0,0,1.25,-360,637.5)" stroke="rgb(240,240,240)">
      <rect x="309.934" y="-61.4565" clip-path="url(#clipPath2)" width="65.224" rx="4" ry="4" height="30" stroke="none"/>
    </g>
    <g text-rendering="geometricPrecision" stroke-miterlimit="1.45" shape-rendering="geometricPrecision" transform="matrix(1.25,0,0,1.25,-360,637.5)" stroke-linecap="butt">
      <rect x="309.934" y="-61.4565" clip-path="url(#clipPath2)" fill="none" width="65.224" rx="4" ry="4" height="30"/>
      <text x="315.2091" y="-41.7427" clip-path="url(#clipPath2)" font-family="sans-serif" stroke="none" font-weight="bold" xml:space="preserve">Emmanu-</text>
    </g>
    <g fill="rgb(255,226,252)" text-rendering="geometricPrecision" shape-rendering="geometricPrecision" transform="matrix(1.25,0,0,1.25,-360,637.5)" stroke="rgb(255,226,252)">
      <rect x="375.158" y="-61.4565" clip-path="url(#clipPath2)" width="66.0192" rx="4" ry="4" height="30" stroke="none"/>
    </g>
    <g stroke-linecap="butt" transform="matrix(1.25,0,0,1.25,-360,637.5)" fill="maroon" text-rendering="geometricPrecision" shape-rendering="geometricPrecision" stroke="maroon" stroke-miterlimit="1.45">
      <rect x="375.158" y="-61.4565" clip-path="url(#clipPath2)" fill="none" width="66.0192" rx="4" ry="4" height="30"/>
      <text x="402.4987" y="-41.7427" clip-path="url(#clipPath2)" font-family="sans-serif" stroke="none" font-weight="bold" xml:space="preserve">El</text>
    </g>
    <g fill="rgb(240,240,240)" text-rendering="geometricPrecision" shape-rendering="geometricPrecision" transform="matrix(1.25,0,0,1.25,-360,637.5)" stroke="rgb(240,240,240)">
      <rect x="309.934" y="-102.8623" clip-path="url(#clipPath2)" width="65.224" rx="4" ry="4" height="30" stroke="none"/>
    </g>
    <g text-rendering="geometricPrecision" stroke-miterlimit="1.45" shape-rendering="geometricPrecision" transform="matrix(1.25,0,0,1.25,-360,637.5)" stroke-linecap="butt">
      <rect x="309.934" y="-102.8623" clip-path="url(#clipPath2)" fill="none" width="65.224" rx="4" ry="4" height="30"/>
      <text x="320.216" y="-83.1484" clip-path="url(#clipPath2)" font-family="sans-serif" stroke="none" font-weight="bold" xml:space="preserve">With Us</text>
    </g>
    <g fill="rgb(255,226,252)" text-rendering="geometricPrecision" shape-rendering="geometricPrecision" transform="matrix(1.25,0,0,1.25,-360,637.5)" stroke="rgb(255,226,252)">
      <rect x="375.158" y="-102.8623" clip-path="url(#clipPath2)" width="66.0192" rx="4" ry="4" height="30" stroke="none"/>
    </g>
    <g stroke-linecap="butt" transform="matrix(1.25,0,0,1.25,-360,637.5)" fill="maroon" text-rendering="geometricPrecision" shape-rendering="geometricPrecision" stroke="maroon" stroke-miterlimit="1.45">
      <rect x="375.158" y="-102.8623" clip-path="url(#clipPath2)" fill="none" width="66.0192" rx="4" ry="4" height="30"/>
      <text x="394.5006" y="-83.1484" clip-path="url(#clipPath2)" font-family="sans-serif" stroke="none" font-weight="bold" xml:space="preserve">GOD</text>
    </g>
    <g fill="rgb(255,226,252)" text-rendering="geometricPrecision" shape-rendering="geometricPrecision" transform="matrix(1.25,0,0,1.25,-360,637.5)" stroke="rgb(255,226,252)">
      <rect x="384.4271" y="-240.8303" clip-path="url(#clipPath2)" width="59.5344" rx="4" ry="4" height="23.984" stroke="none"/>
    </g>
    <g stroke-linecap="butt" transform="matrix(1.25,0,0,1.25,-360,637.5)" fill="maroon" text-rendering="geometricPrecision" shape-rendering="geometricPrecision" stroke="maroon" stroke-miterlimit="1.45">
      <rect x="384.4271" y="-240.8303" clip-path="url(#clipPath2)" fill="none" width="59.5344" rx="4" ry="4" height="23.984"/>
      <text x="386.8633" y="-224.1244" clip-path="url(#clipPath2)" font-family="sans-serif" stroke="none" font-weight="bold" xml:space="preserve">The Child</text>
    </g>
    <g fill="rgb(255,226,252)" text-rendering="geometricPrecision" shape-rendering="geometricPrecision" transform="matrix(1.25,0,0,1.25,-360,637.5)" stroke="rgb(255,226,252)">
      <rect x="384.4271" y="-216.8463" clip-path="url(#clipPath2)" width="59.5344" rx="4" ry="4" height="23.984" stroke="none"/>
    </g>
    <g stroke-linecap="butt" transform="matrix(1.25,0,0,1.25,-360,637.5)" fill="maroon" text-rendering="geometricPrecision" shape-rendering="geometricPrecision" stroke="maroon" stroke-miterlimit="1.45">
      <rect x="384.4271" y="-216.8463" clip-path="url(#clipPath2)" fill="none" width="59.5344" rx="4" ry="4" height="23.984"/>
      <text x="390.5283" y="-200.1404" clip-path="url(#clipPath2)" font-family="sans-serif" stroke="none" font-weight="bold" xml:space="preserve">The Son</text>
    </g>
    <g fill="rgb(240,240,240)" text-rendering="geometricPrecision" shape-rendering="geometricPrecision" transform="matrix(1.25,0,0,1.25,-360,637.5)" stroke="rgb(240,240,240)">
      <rect x="301.9244" y="-240.8303" clip-path="url(#clipPath2)" width="59.5344" rx="4" ry="4" height="23.984" stroke="none"/>
    </g>
    <g text-rendering="geometricPrecision" stroke-miterlimit="1.45" shape-rendering="geometricPrecision" transform="matrix(1.25,0,0,1.25,-360,637.5)" stroke-linecap="butt">
      <rect x="301.9244" y="-240.8303" clip-path="url(#clipPath2)" fill="none" width="59.5344" rx="4" ry="4" height="23.984"/>
      <text x="312.0042" y="-224.1244" clip-path="url(#clipPath2)" font-family="sans-serif" stroke="none" font-weight="bold" xml:space="preserve">"Born"</text>
    </g>
    <g fill="rgb(240,240,240)" text-rendering="geometricPrecision" shape-rendering="geometricPrecision" transform="matrix(1.25,0,0,1.25,-360,637.5)" stroke="rgb(240,240,240)">
      <rect x="301.9244" y="-216.8463" clip-path="url(#clipPath2)" width="59.5344" rx="4" ry="4" height="23.984" stroke="none"/>
    </g>
    <g text-rendering="geometricPrecision" stroke-miterlimit="1.45" shape-rendering="geometricPrecision" transform="matrix(1.25,0,0,1.25,-360,637.5)" stroke-linecap="butt">
      <rect x="301.9244" y="-216.8463" clip-path="url(#clipPath2)" fill="none" width="59.5344" rx="4" ry="4" height="23.984"/>
      <text x="309.3293" y="-200.1404" clip-path="url(#clipPath2)" font-family="sans-serif" stroke="none" font-weight="bold" xml:space="preserve">"Given"</text>
      <path fill="none" d="M343.0433 -430.7691 L339.5846 -429.3827 L339.5846 -414.7773" stroke-width="7" clip-path="url(#clipPath2)" stroke="white"/>
      <path fill="white" d="M339.5846 -400.7773 L348.3346 -421.7773 L339.5846 -416.5273 L330.8346 -421.7773 Z" stroke-width="7" clip-path="url(#clipPath2)" stroke="none"/>
      <path fill="none" d="M409.8442 -430.7527 L411.9585 -430.0801 L411.5983 -414.7465" stroke-width="7" clip-path="url(#clipPath2)" stroke="white"/>
      <path fill="white" d="M411.2694 -400.7503 L420.5103 -421.539 L411.6394 -416.496 L403.0151 -421.9501 Z" stroke-width="7" clip-path="url(#clipPath2)" stroke="none"/>
      <path fill="none" d="M410.9519 -373.7285 L410.9519 -370.6513 L408.1676 -361.5334 L408.1676 -354.7339" stroke-width="7" clip-path="url(#clipPath2)" stroke="white"/>
      <path fill="white" d="M408.1676 -340.7339 L416.9176 -361.7339 L408.1676 -356.4839 L399.4176 -361.7339 Z" stroke-width="7" clip-path="url(#clipPath2)" stroke="none"/>
      <path fill="none" d="M339.5846 -373.6825 L339.5846 -371.5714 L342.5461 -361.5334 L342.5461 -354.7339" stroke-width="7" clip-path="url(#clipPath2)" stroke="white"/>
      <path fill="white" d="M342.5461 -340.7339 L351.2961 -361.7339 L342.5461 -356.4839 L333.7961 -361.7339 Z" stroke-width="7" clip-path="url(#clipPath2)" stroke="none"/>
      <path fill="none" d="M408.1676 -313.7046 L408.1676 -302.2836" stroke-width="7" clip-path="url(#clipPath2)" stroke="white"/>
      <path fill="none" d="M342.5461 -313.7046 L342.5461 -302.2836" stroke-width="7" clip-path="url(#clipPath2)" stroke="white"/>
      <path fill="none" d="M408.1676 -313.7091 L408.1676 -302.2861" stroke-width="4" clip-path="url(#clipPath2)" stroke="maroon"/>
      <path fill="none" d="M342.5461 -313.7091 L342.5461 -302.2861" stroke-width="4" clip-path="url(#clipPath2)"/>
      <path fill="none" d="M339.5846 -373.6804 L339.5846 -371.5714 L342.5461 -361.5334 L342.5461 -354.6796" stroke-width="4" clip-path="url(#clipPath2)"/>
      <path d="M342.5461 -343.6796 L349.4211 -360.1796 L342.5461 -356.0546 L335.6711 -360.1796 Z" stroke-width="4" clip-path="url(#clipPath2)" stroke="none"/>
      <path fill="none" d="M410.9519 -373.72 L410.9519 -370.6513 L408.1676 -361.5334 L408.1676 -354.6796" stroke-width="4" clip-path="url(#clipPath2)" stroke="maroon"/>
      <path fill="maroon" d="M408.1676 -343.6796 L415.0426 -360.1796 L408.1676 -356.0546 L401.2926 -360.1796 Z" stroke-width="4" clip-path="url(#clipPath2)" stroke="none"/>
      <path fill="none" d="M343.1628 -430.7691 L339.5846 -429.3827 L339.5846 -414.6846" stroke-width="4" clip-path="url(#clipPath2)" stroke="rgb(51,51,153)"/>
      <path fill="rgb(51,51,153)" d="M339.5846 -403.6846 L346.4596 -420.1846 L339.5846 -416.0596 L332.7096 -420.1846 Z" stroke-width="4" clip-path="url(#clipPath2)" stroke="none"/>
      <path fill="none" d="M408.8917 -430.7527 L410.9519 -430.0801 L410.9519 -414.6989" stroke-width="4" clip-path="url(#clipPath2)" stroke="rgb(51,51,153)"/>
      <path fill="rgb(51,51,153)" d="M410.9519 -403.6989 L417.8269 -420.1989 L410.9519 -416.0739 L404.0769 -420.1989 Z" stroke-width="4" clip-path="url(#clipPath2)" stroke="none"/>
      <path fill="none" d="M331.6917 -192.8647 L331.6917 -187.9433 L339.5846 -180.6323 L339.5846 -173.9317" stroke-width="7" clip-path="url(#clipPath2)" stroke="white"/>
      <path fill="white" d="M339.5846 -159.9317 L348.3346 -180.9317 L339.5846 -175.6817 L330.8346 -180.9317 Z" stroke-width="7" clip-path="url(#clipPath2)" stroke="none"/>
      <path fill="none" d="M384.424 -228.0201 L361.4824 -228.3761" stroke-width="7" clip-path="url(#clipPath2)" stroke="white"/>
      <path fill="none" d="M384.424 -204.8543 L361.4824 -204.8543" stroke-width="7" clip-path="url(#clipPath2)" stroke="white"/>
      <path fill="none" d="M414.1943 -192.8376 L414.1943 -186.8116 L410.9519 -180.9281 L410.9519 -173.9138" stroke-width="7" clip-path="url(#clipPath2)" stroke="white"/>
      <path fill="white" d="M410.9519 -159.9138 L419.7019 -180.9138 L410.9519 -175.6638 L402.2019 -180.9138 Z" stroke-width="7" clip-path="url(#clipPath2)" stroke="none"/>
      <path fill="none" d="M410.9519 -132.8802 L410.9519 -129.803 L408.1676 -120.6851 L408.1676 -113.8856" stroke-width="7" clip-path="url(#clipPath2)" stroke="white"/>
      <path fill="white" d="M408.1676 -99.8856 L416.9176 -120.8856 L408.1676 -115.6356 L399.4176 -120.8856 Z" stroke-width="7" clip-path="url(#clipPath2)" stroke="none"/>
      <path fill="none" d="M339.5846 -132.8342 L339.5846 -130.7232 L342.5461 -120.6851 L342.5461 -113.8856" stroke-width="7" clip-path="url(#clipPath2)" stroke="white"/>
      <path fill="white" d="M342.5461 -99.8856 L351.2961 -120.8856 L342.5461 -115.6356 L333.7961 -120.8856 Z" stroke-width="7" clip-path="url(#clipPath2)" stroke="none"/>
      <path fill="none" d="M408.1676 -72.8563 L408.1676 -61.4353" stroke-width="7" clip-path="url(#clipPath2)" stroke="white"/>
      <path fill="none" d="M342.5461 -72.8563 L342.5461 -61.4353" stroke-width="7" clip-path="url(#clipPath2)" stroke="white"/>
      <path fill="none" d="M339.5846 -132.8321 L339.5846 -130.7232 L342.5461 -120.6851 L342.5461 -113.8313" stroke-width="4" clip-path="url(#clipPath2)"/>
      <path d="M342.5461 -102.8313 L349.4211 -119.3313 L342.5461 -115.2063 L335.6711 -119.3313 Z" stroke-width="4" clip-path="url(#clipPath2)" stroke="none"/>
      <path fill="none" d="M342.5461 -72.8608 L342.5461 -61.4379" stroke-width="4" clip-path="url(#clipPath2)"/>
      <path fill="none" d="M410.9519 -132.8717 L410.9519 -129.803 L408.1676 -120.6851 L408.1676 -113.8313" stroke-width="4" clip-path="url(#clipPath2)" stroke="maroon"/>
      <path fill="maroon" d="M408.1676 -102.8313 L415.0426 -119.3313 L408.1676 -115.2063 L401.2926 -119.3313 Z" stroke-width="4" clip-path="url(#clipPath2)" stroke="none"/>
      <path fill="none" d="M408.1676 -72.8608 L408.1676 -61.4379" stroke-width="4" clip-path="url(#clipPath2)" stroke="maroon"/>
      <path fill="none" d="M414.1943 -192.8376 L414.1943 -186.8116 L410.9519 -180.9281 L410.9519 -173.8775" stroke-width="4" clip-path="url(#clipPath2)" stroke="maroon"/>
      <path fill="maroon" d="M410.9519 -162.8775 L417.8269 -179.3775 L410.9519 -175.2525 L404.0769 -179.3775 Z" stroke-width="4" clip-path="url(#clipPath2)" stroke="none"/>
      <path fill="none" d="M384.424 -228.8383 L361.4824 -228.8383" stroke-width="4" clip-path="url(#clipPath2)" stroke="maroon"/>
      <path fill="none" d="M384.424 -204.8543 L361.4824 -204.8543" stroke-width="4" clip-path="url(#clipPath2)" stroke="maroon"/>
      <path fill="none" d="M331.6917 -192.8647 L331.6917 -187.9433 L339.5846 -180.6323 L339.5846 -173.8712" stroke-width="4" clip-path="url(#clipPath2)"/>
      <path d="M339.5846 -162.8712 L346.4596 -179.3712 L339.5846 -175.2462 L332.7096 -179.3712 Z" stroke-width="4" clip-path="url(#clipPath2)" stroke="none"/>
    </g>
  </g>
</svg>
