<?xml version="1.0" encoding="UTF-8"?><svg xmlns="http://www.w3.org/2000/svg" xmlns:xlink="http://www.w3.org/1999/xlink" fill-opacity="1" color-rendering="auto" color-interpolation="auto" text-rendering="auto" stroke="black" stroke-linecap="square" width="911" stroke-miterlimit="10" shape-rendering="auto" stroke-opacity="1" fill="black" stroke-dasharray="none" font-weight="normal" stroke-width="1" height="635" font-family="'Dialog'" font-style="normal" stroke-linejoin="miter" font-size="12px" stroke-dashoffset="0" image-rendering="auto">
  <!--Generated by ySVG 2.6-->
  <defs id="genericDefs"/>
  <g>
    <defs id="defs1">
      <clipPath clipPathUnits="userSpaceOnUse" id="clipPath1">
        <path d="M0 0 L911 0 L911 635 L0 635 L0 0 Z"/>
      </clipPath>
      <clipPath clipPathUnits="userSpaceOnUse" id="clipPath2">
        <path d="M863 -65 L1329.432 -65 L1329.432 260.12 L863 260.12 L863 -65 Z"/>
      </clipPath>
    </defs>
    <g fill="rgb(255,226,252)" text-rendering="geometricPrecision" shape-rendering="geometricPrecision" transform="matrix(1.9531,0,0,1.9531,-1685.5469,126.9531)" stroke="rgb(255,226,252)">
      <rect x="1133.4674" y="43.9594" clip-path="url(#clipPath2)" width="59.5344" rx="4" ry="4" height="21.424" stroke="none"/>
    </g>
    <g stroke-linecap="butt" transform="matrix(1.9531,0,0,1.9531,-1685.5469,126.9531)" fill="maroon" text-rendering="geometricPrecision" shape-rendering="geometricPrecision" stroke="maroon" stroke-miterlimit="1.45">
      <rect x="1133.4674" y="43.9594" clip-path="url(#clipPath2)" fill="none" width="59.5344" rx="4" ry="4" height="21.424"/>
      <text x="1135.9036" y="59.3853" clip-path="url(#clipPath2)" font-family="sans-serif" stroke="none" font-weight="bold" xml:space="preserve">The Child</text>
    </g>
    <g fill="rgb(240,240,240)" text-rendering="geometricPrecision" shape-rendering="geometricPrecision" transform="matrix(1.9531,0,0,1.9531,-1685.5469,126.9531)" stroke="rgb(240,240,240)">
      <rect x="1035.0066" y="-44.7126" clip-path="url(#clipPath2)" width="131.2432" rx="4" ry="4" height="30" stroke="none"/>
    </g>
    <g text-rendering="geometricPrecision" stroke-miterlimit="1.45" shape-rendering="geometricPrecision" transform="matrix(1.9531,0,0,1.9531,-1685.5469,126.9531)" stroke-linecap="butt">
      <rect x="1035.0066" y="-44.7126" clip-path="url(#clipPath2)" fill="none" width="131.2432" rx="4" ry="4" height="30"/>
      <text x="1052.2913" y="-24.9987" clip-path="url(#clipPath2)" font-family="sans-serif" stroke="none" font-weight="bold" xml:space="preserve">Angel of Yahweh</text>
      <rect x="792.112" y="226.9753" clip-path="url(#clipPath2)" fill="none" width="66.0192" rx="4" ry="4" height="30"/>
      <text x="819.7866" xml:space="preserve" y="246.6891" clip-path="url(#clipPath2)" font-family="sans-serif" stroke="none">El</text>
      <rect x="792.112" y="185.5695" clip-path="url(#clipPath2)" fill="none" width="66.0192" rx="4" ry="4" height="30"/>
      <text x="811.4546" xml:space="preserve" y="205.2834" clip-path="url(#clipPath2)" font-family="sans-serif" stroke="none">GOD</text>
      <rect x="792.112" y="125.5695" clip-path="url(#clipPath2)" fill="none" width="66.0192" rx="4" ry="4" height="30"/>
      <text x="807.4497" xml:space="preserve" y="137.9328" clip-path="url(#clipPath2)" font-family="sans-serif" stroke="none">Mighty</text>
      <text x="811.4546" xml:space="preserve" y="152.634" clip-path="url(#clipPath2)" font-family="sans-serif" stroke="none">GOD</text>
    </g>
    <g fill="rgb(240,240,240)" text-rendering="geometricPrecision" shape-rendering="geometricPrecision" transform="matrix(1.9531,0,0,1.9531,-1685.5469,126.9531)" stroke="rgb(240,240,240)">
      <rect x="1027.1136" y="122.3165" clip-path="url(#clipPath2)" width="59.3012" rx="4" ry="4" height="27.0509" stroke="none"/>
    </g>
    <g text-rendering="geometricPrecision" stroke-miterlimit="1.45" shape-rendering="geometricPrecision" transform="matrix(1.9531,0,0,1.9531,-1685.5469,126.9531)" stroke-linecap="butt">
      <rect x="1027.1136" y="122.3165" clip-path="url(#clipPath2)" fill="none" width="59.3012" rx="4" ry="4" height="27.0509"/>
      <text x="1029.4067" y="140.5558" clip-path="url(#clipPath2)" font-family="sans-serif" stroke="none" font-weight="bold" xml:space="preserve">"To Us..."</text>
    </g>
    <g fill="rgb(240,240,240)" text-rendering="geometricPrecision" shape-rendering="geometricPrecision" transform="matrix(1.9531,0,0,1.9531,-1685.5469,126.9531)" stroke="rgb(240,240,240)">
      <rect x="1002.6226" y="65.3834" clip-path="url(#clipPath2)" width="59.5344" rx="4" ry="4" height="23.984" stroke="none"/>
    </g>
    <g text-rendering="geometricPrecision" stroke-miterlimit="1.45" shape-rendering="geometricPrecision" transform="matrix(1.9531,0,0,1.9531,-1685.5469,126.9531)" stroke-linecap="butt">
      <rect x="1002.6226" y="65.3834" clip-path="url(#clipPath2)" fill="none" width="59.5344" rx="4" ry="4" height="23.984"/>
      <text x="1010.0275" y="82.0892" clip-path="url(#clipPath2)" font-family="sans-serif" stroke="none" font-weight="bold" xml:space="preserve">"Given"</text>
    </g>
    <g fill="rgb(240,240,240)" text-rendering="geometricPrecision" shape-rendering="geometricPrecision" transform="matrix(1.9531,0,0,1.9531,-1685.5469,126.9531)" stroke="rgb(240,240,240)">
      <rect x="1002.6226" y="41.3994" clip-path="url(#clipPath2)" width="59.5344" rx="4" ry="4" height="23.984" stroke="none"/>
    </g>
    <g text-rendering="geometricPrecision" stroke-miterlimit="1.45" shape-rendering="geometricPrecision" transform="matrix(1.9531,0,0,1.9531,-1685.5469,126.9531)" stroke-linecap="butt">
      <rect x="1002.6226" y="41.3994" clip-path="url(#clipPath2)" fill="none" width="59.5344" rx="4" ry="4" height="23.984"/>
      <text x="1012.7023" y="58.1053" clip-path="url(#clipPath2)" font-family="sans-serif" stroke="none" font-weight="bold" xml:space="preserve">"Born"</text>
    </g>
    <g fill="rgb(255,226,252)" text-rendering="geometricPrecision" shape-rendering="geometricPrecision" transform="matrix(1.9531,0,0,1.9531,-1685.5469,126.9531)" stroke="rgb(255,226,252)">
      <rect x="1133.4674" y="65.3834" clip-path="url(#clipPath2)" width="59.5344" rx="4" ry="4" height="23.984" stroke="none"/>
    </g>
    <g stroke-linecap="butt" transform="matrix(1.9531,0,0,1.9531,-1685.5469,126.9531)" fill="maroon" text-rendering="geometricPrecision" shape-rendering="geometricPrecision" stroke="maroon" stroke-miterlimit="1.45">
      <rect x="1133.4674" y="65.3834" clip-path="url(#clipPath2)" fill="none" width="59.5344" rx="4" ry="4" height="23.984"/>
      <text x="1139.5686" y="82.0892" clip-path="url(#clipPath2)" font-family="sans-serif" stroke="none" font-weight="bold" xml:space="preserve">The Son</text>
    </g>
    <g fill="rgb(255,226,252)" text-rendering="geometricPrecision" shape-rendering="geometricPrecision" transform="matrix(1.9531,0,0,1.9531,-1685.5469,126.9531)" stroke="rgb(255,226,252)">
      <rect x="1117.7605" y="122.3165" clip-path="url(#clipPath2)" width="60.4507" rx="4" ry="4" height="27.0509" stroke="none"/>
    </g>
    <g stroke-linecap="butt" transform="matrix(1.9531,0,0,1.9531,-1685.5469,126.9531)" fill="maroon" text-rendering="geometricPrecision" shape-rendering="geometricPrecision" stroke="maroon" stroke-miterlimit="1.45">
      <rect x="1117.7605" y="122.3165" clip-path="url(#clipPath2)" fill="none" width="60.4507" rx="4" ry="4" height="27.0509"/>
      <text x="1128.6558" y="133.2052" clip-path="url(#clipPath2)" font-family="sans-serif" stroke="none" font-weight="bold" xml:space="preserve">Mighty</text>
      <text x="1134.3188" y="147.9064" clip-path="url(#clipPath2)" font-family="sans-serif" stroke="none" font-weight="bold" xml:space="preserve">GOD</text>
    </g>
    <g fill="rgb(255,226,252)" text-rendering="geometricPrecision" shape-rendering="geometricPrecision" transform="matrix(1.9531,0,0,1.9531,-1685.5469,126.9531)" stroke="rgb(255,226,252)">
      <rect x="1100.2306" y="182.3165" clip-path="url(#clipPath2)" width="66.0192" rx="4" ry="4" height="27.0509" stroke="none"/>
    </g>
    <g stroke-linecap="butt" transform="matrix(1.9531,0,0,1.9531,-1685.5469,126.9531)" fill="maroon" text-rendering="geometricPrecision" shape-rendering="geometricPrecision" stroke="maroon" stroke-miterlimit="1.45">
      <rect x="1100.2306" y="182.3165" clip-path="url(#clipPath2)" fill="none" width="66.0192" rx="4" ry="4" height="27.0509"/>
      <text x="1119.5732" y="200.5558" clip-path="url(#clipPath2)" font-family="sans-serif" stroke="none" font-weight="bold" xml:space="preserve">GOD</text>
    </g>
    <g fill="rgb(240,240,240)" text-rendering="geometricPrecision" shape-rendering="geometricPrecision" transform="matrix(1.9531,0,0,1.9531,-1685.5469,126.9531)" stroke="rgb(240,240,240)">
      <rect x="1035.0066" y="182.3165" clip-path="url(#clipPath2)" width="65.224" rx="4" ry="4" height="27.0509" stroke="none"/>
    </g>
    <g text-rendering="geometricPrecision" stroke-miterlimit="1.45" shape-rendering="geometricPrecision" transform="matrix(1.9531,0,0,1.9531,-1685.5469,126.9531)" stroke-linecap="butt">
      <rect x="1035.0066" y="182.3165" clip-path="url(#clipPath2)" fill="none" width="65.224" rx="4" ry="4" height="27.0509"/>
      <text x="1045.2886" y="200.5558" clip-path="url(#clipPath2)" font-family="sans-serif" stroke="none" font-weight="bold" xml:space="preserve">With Us</text>
    </g>
    <g fill="rgb(255,226,252)" text-rendering="geometricPrecision" shape-rendering="geometricPrecision" transform="matrix(1.9531,0,0,1.9531,-1685.5469,126.9531)" stroke="rgb(255,226,252)">
      <rect x="1100.2306" y="220.7731" clip-path="url(#clipPath2)" width="66.0192" rx="4" ry="4" height="30" stroke="none"/>
    </g>
    <g stroke-linecap="butt" transform="matrix(1.9531,0,0,1.9531,-1685.5469,126.9531)" fill="maroon" text-rendering="geometricPrecision" shape-rendering="geometricPrecision" stroke="maroon" stroke-miterlimit="1.45">
      <rect x="1100.2306" y="220.7731" clip-path="url(#clipPath2)" fill="none" width="66.0192" rx="4" ry="4" height="30"/>
      <text x="1127.5713" y="240.487" clip-path="url(#clipPath2)" font-family="sans-serif" stroke="none" font-weight="bold" xml:space="preserve">El</text>
    </g>
    <g fill="rgb(240,240,240)" text-rendering="geometricPrecision" shape-rendering="geometricPrecision" transform="matrix(1.9531,0,0,1.9531,-1685.5469,126.9531)" stroke="rgb(240,240,240)">
      <rect x="1035.0066" y="220.7731" clip-path="url(#clipPath2)" width="65.224" rx="4" ry="4" height="30" stroke="none"/>
    </g>
    <g text-rendering="geometricPrecision" stroke-miterlimit="1.45" shape-rendering="geometricPrecision" transform="matrix(1.9531,0,0,1.9531,-1685.5469,126.9531)" stroke-linecap="butt">
      <rect x="1035.0066" y="220.7731" clip-path="url(#clipPath2)" fill="none" width="65.224" rx="4" ry="4" height="30"/>
      <text x="1040.2817" y="240.487" clip-path="url(#clipPath2)" font-family="sans-serif" stroke="none" font-weight="bold" xml:space="preserve">Emmanu-</text>
    </g>
    <g fill="rgb(208,253,255)" text-rendering="geometricPrecision" shape-rendering="geometricPrecision" transform="matrix(1.9531,0,0,1.9531,-1685.5469,126.9531)" stroke="rgb(208,253,255)">
      <rect x="1035.0066" y="-44.7126" clip-path="url(#clipPath2)" width="131.2432" rx="4" ry="4" height="30" stroke="none"/>
    </g>
    <g stroke-linecap="butt" transform="matrix(1.9531,0,0,1.9531,-1685.5469,126.9531)" fill="rgb(51,51,153)" text-rendering="geometricPrecision" shape-rendering="geometricPrecision" stroke="rgb(51,51,153)" stroke-miterlimit="1.45">
      <rect x="1035.0066" y="-44.7126" clip-path="url(#clipPath2)" fill="none" width="131.2432" rx="4" ry="4" height="30"/>
      <text x="1040.207" font-size="15px" y="-23.8203" clip-path="url(#clipPath2)" font-family="sans-serif" stroke="none" font-weight="bold" xml:space="preserve">Angel of Yahweh</text>
    </g>
    <g fill="rgb(240,240,240)" text-rendering="geometricPrecision" shape-rendering="geometricPrecision" transform="matrix(1.9531,0,0,1.9531,-1685.5469,126.9531)" stroke="rgb(240,240,240)">
      <rect x="1002.6226" y="65.3834" clip-path="url(#clipPath2)" width="59.5344" rx="4" ry="4" height="23.984" stroke="none"/>
    </g>
    <g text-rendering="geometricPrecision" stroke-miterlimit="1.45" shape-rendering="geometricPrecision" transform="matrix(1.9531,0,0,1.9531,-1685.5469,126.9531)" stroke-linecap="butt">
      <rect x="1002.6226" y="65.3834" clip-path="url(#clipPath2)" fill="none" width="59.5344" rx="4" ry="4" height="23.984"/>
      <text x="1010.0275" y="82.0892" clip-path="url(#clipPath2)" font-family="sans-serif" stroke="none" font-weight="bold" xml:space="preserve">"Given"</text>
    </g>
    <g fill="rgb(240,240,240)" text-rendering="geometricPrecision" shape-rendering="geometricPrecision" transform="matrix(1.9531,0,0,1.9531,-1685.5469,126.9531)" stroke="rgb(240,240,240)">
      <rect x="1002.6226" y="41.3994" clip-path="url(#clipPath2)" width="59.5344" rx="4" ry="4" height="23.984" stroke="none"/>
    </g>
    <g text-rendering="geometricPrecision" stroke-miterlimit="1.45" shape-rendering="geometricPrecision" transform="matrix(1.9531,0,0,1.9531,-1685.5469,126.9531)" stroke-linecap="butt">
      <rect x="1002.6226" y="41.3994" clip-path="url(#clipPath2)" fill="none" width="59.5344" rx="4" ry="4" height="23.984"/>
      <text x="1012.7023" y="58.1053" clip-path="url(#clipPath2)" font-family="sans-serif" stroke="none" font-weight="bold" xml:space="preserve">"Born"</text>
    </g>
    <g fill="rgb(255,226,252)" text-rendering="geometricPrecision" shape-rendering="geometricPrecision" transform="matrix(1.9531,0,0,1.9531,-1685.5469,126.9531)" stroke="rgb(255,226,252)">
      <rect x="1133.4674" y="65.3834" clip-path="url(#clipPath2)" width="59.5344" rx="4" ry="4" height="23.984" stroke="none"/>
    </g>
    <g stroke-linecap="butt" transform="matrix(1.9531,0,0,1.9531,-1685.5469,126.9531)" fill="maroon" text-rendering="geometricPrecision" shape-rendering="geometricPrecision" stroke="maroon" stroke-miterlimit="1.45">
      <rect x="1133.4674" y="65.3834" clip-path="url(#clipPath2)" fill="none" width="59.5344" rx="4" ry="4" height="23.984"/>
      <text x="1139.5686" y="82.0892" clip-path="url(#clipPath2)" font-family="sans-serif" stroke="none" font-weight="bold" xml:space="preserve">The Son</text>
    </g>
    <g fill="rgb(255,226,252)" text-rendering="geometricPrecision" shape-rendering="geometricPrecision" transform="matrix(1.9531,0,0,1.9531,-1685.5469,126.9531)" stroke="rgb(255,226,252)">
      <rect x="1133.4674" y="41.3994" clip-path="url(#clipPath2)" width="59.5344" rx="4" ry="4" height="23.984" stroke="none"/>
    </g>
    <g stroke-linecap="butt" transform="matrix(1.9531,0,0,1.9531,-1685.5469,126.9531)" fill="maroon" text-rendering="geometricPrecision" shape-rendering="geometricPrecision" stroke="maroon" stroke-miterlimit="1.45">
      <rect x="1133.4674" y="41.3994" clip-path="url(#clipPath2)" fill="none" width="59.5344" rx="4" ry="4" height="23.984"/>
      <text x="1135.9036" y="58.1053" clip-path="url(#clipPath2)" font-family="sans-serif" stroke="none" font-weight="bold" xml:space="preserve">The Child</text>
    </g>
    <g fill="rgb(255,226,252)" text-rendering="geometricPrecision" shape-rendering="geometricPrecision" transform="matrix(1.9531,0,0,1.9531,-1685.5469,126.9531)" stroke="rgb(255,226,252)">
      <rect x="1100.2306" y="179.3674" clip-path="url(#clipPath2)" width="66.0192" rx="4" ry="4" height="30" stroke="none"/>
    </g>
    <g stroke-linecap="butt" transform="matrix(1.9531,0,0,1.9531,-1685.5469,126.9531)" fill="maroon" text-rendering="geometricPrecision" shape-rendering="geometricPrecision" stroke="maroon" stroke-miterlimit="1.45">
      <rect x="1100.2306" y="179.3674" clip-path="url(#clipPath2)" fill="none" width="66.0192" rx="4" ry="4" height="30"/>
      <text x="1119.5732" y="199.0813" clip-path="url(#clipPath2)" font-family="sans-serif" stroke="none" font-weight="bold" xml:space="preserve">GOD</text>
    </g>
    <g fill="rgb(240,240,240)" text-rendering="geometricPrecision" shape-rendering="geometricPrecision" transform="matrix(1.9531,0,0,1.9531,-1685.5469,126.9531)" stroke="rgb(240,240,240)">
      <rect x="1035.0066" y="179.3674" clip-path="url(#clipPath2)" width="65.224" rx="4" ry="4" height="30" stroke="none"/>
    </g>
    <g text-rendering="geometricPrecision" stroke-miterlimit="1.45" shape-rendering="geometricPrecision" transform="matrix(1.9531,0,0,1.9531,-1685.5469,126.9531)" stroke-linecap="butt">
      <rect x="1035.0066" y="179.3674" clip-path="url(#clipPath2)" fill="none" width="65.224" rx="4" ry="4" height="30"/>
      <text x="1045.2886" y="199.0813" clip-path="url(#clipPath2)" font-family="sans-serif" stroke="none" font-weight="bold" xml:space="preserve">With Us</text>
    </g>
    <g fill="rgb(255,226,252)" text-rendering="geometricPrecision" shape-rendering="geometricPrecision" transform="matrix(1.9531,0,0,1.9531,-1685.5469,126.9531)" stroke="rgb(255,226,252)">
      <rect x="1100.2306" y="220.7731" clip-path="url(#clipPath2)" width="66.0192" rx="4" ry="4" height="30" stroke="none"/>
    </g>
    <g stroke-linecap="butt" transform="matrix(1.9531,0,0,1.9531,-1685.5469,126.9531)" fill="maroon" text-rendering="geometricPrecision" shape-rendering="geometricPrecision" stroke="maroon" stroke-miterlimit="1.45">
      <rect x="1100.2306" y="220.7731" clip-path="url(#clipPath2)" fill="none" width="66.0192" rx="4" ry="4" height="30"/>
      <text x="1127.5713" y="240.487" clip-path="url(#clipPath2)" font-family="sans-serif" stroke="none" font-weight="bold" xml:space="preserve">El</text>
    </g>
    <g fill="rgb(240,240,240)" text-rendering="geometricPrecision" shape-rendering="geometricPrecision" transform="matrix(1.9531,0,0,1.9531,-1685.5469,126.9531)" stroke="rgb(240,240,240)">
      <rect x="1035.0066" y="220.7731" clip-path="url(#clipPath2)" width="65.224" rx="4" ry="4" height="30" stroke="none"/>
    </g>
    <g text-rendering="geometricPrecision" stroke-miterlimit="1.45" shape-rendering="geometricPrecision" transform="matrix(1.9531,0,0,1.9531,-1685.5469,126.9531)" stroke-linecap="butt">
      <rect x="1035.0066" y="220.7731" clip-path="url(#clipPath2)" fill="none" width="65.224" rx="4" ry="4" height="30"/>
      <text x="1040.2817" y="240.487" clip-path="url(#clipPath2)" font-family="sans-serif" stroke="none" font-weight="bold" xml:space="preserve">Emmanu-</text>
    </g>
    <g fill="rgb(240,240,240)" text-rendering="geometricPrecision" shape-rendering="geometricPrecision" transform="matrix(1.9531,0,0,1.9531,-1685.5469,126.9531)" stroke="rgb(240,240,240)">
      <rect x="1024.1522" y="119.3674" clip-path="url(#clipPath2)" width="65.224" rx="4" ry="4" height="30" stroke="none"/>
    </g>
    <g text-rendering="geometricPrecision" stroke-miterlimit="1.45" shape-rendering="geometricPrecision" transform="matrix(1.9531,0,0,1.9531,-1685.5469,126.9531)" stroke-linecap="butt">
      <rect x="1024.1522" y="119.3674" clip-path="url(#clipPath2)" fill="none" width="65.224" rx="4" ry="4" height="30"/>
      <text x="1029.4067" y="139.0813" clip-path="url(#clipPath2)" font-family="sans-serif" stroke="none" font-weight="bold" xml:space="preserve">"To Us..."</text>
    </g>
    <g fill="rgb(255,226,252)" text-rendering="geometricPrecision" shape-rendering="geometricPrecision" transform="matrix(1.9531,0,0,1.9531,-1685.5469,126.9531)" stroke="rgb(255,226,252)">
      <rect x="1114.9762" y="119.3674" clip-path="url(#clipPath2)" width="66.0192" rx="4" ry="4" height="30" stroke="none"/>
    </g>
    <g stroke-linecap="butt" transform="matrix(1.9531,0,0,1.9531,-1685.5469,126.9531)" fill="maroon" text-rendering="geometricPrecision" shape-rendering="geometricPrecision" stroke="maroon" stroke-miterlimit="1.45">
      <rect x="1114.9762" y="119.3674" clip-path="url(#clipPath2)" fill="none" width="66.0192" rx="4" ry="4" height="30"/>
      <text x="1128.6558" y="131.7307" clip-path="url(#clipPath2)" font-family="sans-serif" stroke="none" font-weight="bold" xml:space="preserve">Mighty</text>
      <text x="1134.3188" y="146.4318" clip-path="url(#clipPath2)" font-family="sans-serif" stroke="none" font-weight="bold" xml:space="preserve">GOD</text>
      <path fill="none" d="M1166.2897 -28.5741 L1185.9916 -28.5741 L1163.2346 22.0575 L1163.2346 29.935" stroke-width="7" clip-path="url(#clipPath2)" stroke="white"/>
      <path fill="white" d="M1163.2346 43.935 L1171.9846 22.935 L1163.2346 28.185 L1154.4846 22.935 Z" stroke-width="7" clip-path="url(#clipPath2)" stroke="none"/>
      <path fill="none" d="M1034.9944 -29.7126 L991.7435 -29.7126 L991.7435 134.3674 L1013.1465 134.8528" stroke-width="7" clip-path="url(#clipPath2)" stroke="white"/>
      <path fill="white" d="M1027.1429 135.1702 L1006.3467 125.9463 L1011.397 134.8131 L1005.95 143.4418 Z" stroke-width="7" clip-path="url(#clipPath2)" stroke="none"/>
      <path fill="none" d="M1032.3898 89.365 L1032.3898 94.2864 L1056.7642 101.5974 L1056.7642 108.298" stroke-width="7" clip-path="url(#clipPath2)" stroke="white"/>
      <path fill="white" d="M1056.7642 122.298 L1065.5142 101.298 L1056.7642 106.548 L1048.0142 101.298 Z" stroke-width="7" clip-path="url(#clipPath2)" stroke="none"/>
      <path fill="none" d="M1133.4943 54.3804 L1062.1583 53.6826" stroke-width="7" clip-path="url(#clipPath2)" stroke="white"/>
      <path fill="none" d="M1133.4943 77.3754 L1062.1583 77.3754" stroke-width="7" clip-path="url(#clipPath2)" stroke="white"/>
      <path fill="none" d="M1163.2346 89.3921 L1163.2346 95.418 L1147.9858 101.1165 L1147.9858 108.3112" stroke-width="7" clip-path="url(#clipPath2)" stroke="white"/>
      <path fill="white" d="M1147.9858 122.3112 L1156.7358 101.3112 L1147.9858 106.5612 L1139.2358 101.3112 Z" stroke-width="7" clip-path="url(#clipPath2)" stroke="none"/>
      <path fill="none" d="M1166.2368 -29.7126 L1211.2635 -29.7126 L1211.2635 134.3674 L1192.1971 134.3674" stroke-width="7" clip-path="url(#clipPath2)" stroke="white"/>
      <path fill="white" d="M1178.1971 134.3674 L1199.1971 143.1174 L1193.9471 134.3674 L1199.1971 125.6174 Z" stroke-width="7" clip-path="url(#clipPath2)" stroke="none"/>
      <path fill="none" d="M1147.9858 149.3494 L1147.9858 152.4266 L1133.2402 161.5445 L1133.2402 168.344" stroke-width="7" clip-path="url(#clipPath2)" stroke="white"/>
      <path fill="white" d="M1133.2402 182.344 L1141.9902 161.344 L1133.2402 166.594 L1124.4902 161.344 Z" stroke-width="7" clip-path="url(#clipPath2)" stroke="none"/>
      <path fill="none" d="M1056.7642 149.3955 L1056.7642 151.5065 L1067.6187 161.5445 L1067.6187 168.344" stroke-width="7" clip-path="url(#clipPath2)" stroke="white"/>
      <path fill="white" d="M1067.6187 182.344 L1076.3687 161.344 L1067.6187 166.594 L1058.8687 161.344 Z" stroke-width="7" clip-path="url(#clipPath2)" stroke="none"/>
      <path fill="none" d="M1133.2402 209.3733 L1133.2402 220.7943" stroke-width="7" clip-path="url(#clipPath2)" stroke="white"/>
      <path fill="none" d="M1067.6187 209.3733 L1067.6187 220.7943" stroke-width="7" clip-path="url(#clipPath2)" stroke="white"/>
      <path fill="none" d="M1133.4943 77.3754 L1062.1583 77.3754" stroke-width="4" clip-path="url(#clipPath2)"/>
      <path fill="none" d="M1166.2762 -29.7126 L1185.9916 -29.7126 L1163.2346 21.4111 L1163.2346 30.43" stroke-width="4" clip-path="url(#clipPath2)" stroke="rgb(51,51,153)"/>
      <path fill="rgb(51,51,153)" d="M1163.2346 41.43 L1170.1096 24.93 L1163.2346 29.055 L1156.3596 24.93 Z" stroke-width="4" clip-path="url(#clipPath2)" stroke="none"/>
      <path fill="none" d="M1133.4943 53.3914 L1062.1583 53.3914" stroke-width="4" clip-path="url(#clipPath2)"/>
      <path fill="none" d="M1133.2402 209.3689 L1133.2402 220.7918" stroke-width="4" clip-path="url(#clipPath2)"/>
      <path fill="none" d="M1067.6187 209.3689 L1067.6187 220.7918" stroke-width="4" clip-path="url(#clipPath2)" stroke="black"/>
      <path fill="none" d="M1032.3898 89.365 L1032.3898 94.2864 L1056.7642 101.5974 L1056.7642 108.3585" stroke-width="4" clip-path="url(#clipPath2)" stroke="black"/>
      <path fill="black" d="M1056.7642 119.3585 L1063.6392 102.8585 L1056.7642 106.9835 L1049.8892 102.8585 Z" stroke-width="4" clip-path="url(#clipPath2)" stroke="none"/>
      <path fill="none" d="M1034.9944 -29.7126 L991.7435 -29.7126 L991.7435 134.3674 L1014.1586 134.3674" stroke-width="3" clip-path="url(#clipPath2)" stroke="rgb(51,51,153)"/>
      <path fill="rgb(51,51,153)" d="M1024.1587 134.3674 L1009.1587 128.1174 L1012.9087 134.3674 L1009.1587 140.6174 Z" stroke-width="3" clip-path="url(#clipPath2)" stroke="none"/>
      <path fill="none" d="M1056.7642 149.3976 L1056.7642 151.5065 L1067.6187 161.5445 L1067.6187 168.3984" stroke-width="4" clip-path="url(#clipPath2)" stroke="black"/>
      <path fill="black" d="M1067.6187 179.3984 L1074.4937 162.8984 L1067.6187 167.0234 L1060.7437 162.8984 Z" stroke-width="4" clip-path="url(#clipPath2)" stroke="none"/>
      <path fill="none" d="M1166.2368 -29.7126 L1211.2635 -29.7126 L1211.2635 134.3674 L1191.015 134.3674" stroke-width="3" clip-path="url(#clipPath2)" stroke="rgb(51,51,153)"/>
      <path fill="rgb(51,51,153)" d="M1181.015 134.3674 L1196.015 140.6174 L1192.265 134.3674 L1196.015 128.1174 Z" stroke-width="3" clip-path="url(#clipPath2)" stroke="none"/>
      <path fill="none" d="M1163.2346 89.3921 L1163.2346 95.418 L1147.9858 101.1165 L1147.9858 108.398" stroke-width="4" clip-path="url(#clipPath2)"/>
      <path d="M1147.9858 119.398 L1154.8608 102.898 L1147.9858 107.023 L1141.1108 102.898 Z" stroke-width="4" clip-path="url(#clipPath2)" stroke="none"/>
      <path fill="none" d="M1147.9858 149.358 L1147.9858 152.4266 L1133.2402 161.5445 L1133.2402 168.3984" stroke-width="4" clip-path="url(#clipPath2)"/>
      <path d="M1133.2402 179.3984 L1140.1152 162.8984 L1133.2402 167.0234 L1126.3652 162.8984 Z" stroke-width="4" clip-path="url(#clipPath2)" stroke="none"/>
    </g>
  </g>
</svg>
