<?xml version="1.0" encoding="iso-8859-1"?>
<!-- Generator: Adobe Illustrator 19.0.0, SVG Export Plug-In . SVG Version: 6.00 Build 0)  -->
<svg version="1.1" id="Layer_1" xmlns="http://www.w3.org/2000/svg" xmlns:xlink="http://www.w3.org/1999/xlink" x="0px" y="0px"
	 viewBox="0 0 512.001 512.001" style="enable-background:new 0 0 512.001 512.001;" xml:space="preserve">
<path style="fill:#C7CFE2;" d="M502.373,188.922c-0.504-4.436-4.376-7.734-8.841-7.734h-19.324
	c-4.569-25.835-14.654-49.724-29.113-70.401l13.631-13.631c3.157-3.157,3.562-8.227,0.782-11.72
	c-4.791-6.021-9.971-11.833-15.541-17.403c-5.57-5.57-11.382-10.751-17.403-15.541c-3.493-2.779-8.564-2.375-11.72,0.782
	l-13.631,13.631c-20.677-14.461-44.566-24.545-70.401-29.113V18.467c0-4.465-3.299-8.336-7.734-8.841
	c-7.469-0.849-15.065-1.281-22.757-1.301V8.309c-0.091,0-0.178,0.008-0.269,0.008c-0.091,0-0.178-0.008-0.269-0.008v0.016
	c-7.692,0.02-15.287,0.452-22.757,1.301c-4.437,0.504-7.735,4.376-7.735,8.841V37.79c-25.835,4.569-49.724,14.654-70.401,29.113
	l-13.631-13.631c-3.157-3.157-8.227-3.562-11.72-0.782c-6.021,4.791-11.833,9.971-17.403,15.541
	c-5.57,5.57-10.751,11.382-15.541,17.403c-2.78,3.493-2.375,8.564,0.782,11.72l13.631,13.631
	c-14.461,20.677-24.545,44.566-29.113,70.401H106.57c-4.465,0-8.336,3.299-8.841,7.734c-0.869,7.645-1.315,15.418-1.315,23.295
	c0,7.877,0.447,15.65,1.317,23.295c0.504,4.436,4.376,7.734,8.841,7.734h19.323c4.569,25.835,14.654,49.724,29.113,70.401
	l-13.631,13.631c-3.157,3.157-3.562,8.227-0.782,11.72c4.791,6.021,9.971,11.832,15.541,17.403
	c5.57,5.57,11.382,10.751,17.403,15.541c3.493,2.779,8.564,2.375,11.72-0.782l13.63-13.63
	c20.677,14.461,44.566,24.545,70.401,29.113v19.324c0,4.464,3.299,8.336,7.734,8.841c7.469,0.85,15.065,1.281,22.757,1.301v0.016
	c0.091,0,0.178-0.008,0.269-0.008s0.178,0.008,0.269,0.008v-0.016c7.692-0.02,15.287-0.452,22.757-1.301
	c4.436-0.504,7.734-4.376,7.734-8.841v-19.324c25.835-4.569,49.726-14.654,70.401-29.113l13.63,13.63
	c3.157,3.157,8.227,3.562,11.72,0.782c6.021-4.791,11.833-9.971,17.403-15.541c5.57-5.57,10.751-11.382,15.541-17.403
	c2.78-3.493,2.375-8.564-0.782-11.72l-13.631-13.631c14.461-20.677,24.545-44.566,29.113-70.401h19.323
	c4.465,0,8.336-3.299,8.841-7.734c0.87-7.644,1.316-15.418,1.316-23.295C503.689,204.339,503.241,196.566,502.373,188.922z"/>
<circle style="fill:#7F8499;" cx="299.777" cy="212.219" r="132.451"/>
<circle style="fill:#F1F4FB;" cx="299.777" cy="212.219" r="96.989"/>
<path style="fill:#9B735A;" d="M156.858,317.526L17.15,457.234c-10.183,10.183-11.686,26.938-2.049,37.64
	c10.277,11.414,27.876,11.76,38.598,1.038l140.772-140.773L156.858,317.526z"/>
<path style="fill:#8C5F50;" d="M17.361,457.022c-9.117,9.117-11.699,23.552-4.813,34.452c3.686,5.835,9,9.273,14.719,10.985
	c-2.715-9.067-0.614-19.269,6.548-26.431l140.772-140.772l-17.731-17.731L17.361,457.022z"/>
<path style="fill:#E4EAF8;" d="M336.819,257.043c-1.528-1.528-3.522-2.471-5.657-2.805c-38.153-5.972-68.185-36.265-73.651-74.587
	c-0.527-3.701-2.926-6.86-6.473-8.042l0,0c-4.265-1.422-8.953,0.3-11.307,4.132c-9.043,14.723-12.872,32.961-8.573,52.336
	c5.802,26.159,26.875,47.1,53.051,52.819c18.57,4.057,36.032,0.632,50.357-7.678C340.435,269.815,341.616,261.84,336.819,257.043
	L336.819,257.043z"/>
<path d="M249.635,138.414c35.329-24.068,82.948-19.558,113.228,10.721c30.28,30.281,34.789,77.899,10.721,113.228
	c-2.584,3.793-1.605,8.964,2.19,11.548c1.432,0.975,3.061,1.443,4.672,1.443c2.656,0,5.267-1.271,6.876-3.633
	c28.56-41.922,23.217-98.42-12.704-134.341c-35.922-35.921-92.42-41.265-134.341-12.704c-3.793,2.584-4.774,7.755-2.19,11.548
	C240.67,140.018,245.84,140.998,249.635,138.414z"/>
<path d="M299.828,318.119c21.008-0.001,42.132-6.261,60.44-19.039c3.763-2.626,4.687-7.808,2.059-11.572
	c-2.628-3.763-7.808-4.685-11.573-2.058c-35.457,24.746-83.422,20.477-114.051-10.153c-30.629-30.629-34.899-78.595-10.153-114.053
	c2.628-3.763,1.706-8.944-2.059-11.572c-3.765-2.626-8.945-1.706-11.573,2.059c-29.365,42.075-24.305,98.985,12.031,135.319
	C245.472,307.575,272.555,318.121,299.828,318.119z"/>
<path d="M510.631,187.982c-0.98-8.613-8.33-15.107-17.099-15.107h-12.484c-4.701-21.858-13.167-42.336-25.241-61.048l8.796-8.796
	c6.2-6.2,6.806-15.991,1.409-22.772c-5.005-6.29-10.445-12.382-16.167-18.106c-5.718-5.718-11.809-11.157-18.104-16.168
	c-6.782-5.397-16.573-4.791-22.772,1.41l-8.796,8.796c-18.712-12.074-39.19-20.541-61.048-25.241V18.467
	c0-8.768-6.494-16.119-15.107-17.099c-15.985-1.817-32.482-1.817-48.468,0c-8.612,0.981-15.106,8.331-15.106,17.099V30.95
	c-21.858,4.701-42.336,13.168-61.048,25.241l-8.796-8.796c-6.2-6.2-15.991-6.807-22.772-1.409
	c-6.296,5.01-12.387,10.45-18.104,16.167c-5.724,5.724-11.164,11.816-16.167,18.104c-5.398,6.782-4.793,16.573,1.409,22.773
	l8.796,8.796c-12.074,18.712-20.541,39.19-25.241,61.048h-12.486c-8.769,0-16.12,6.494-17.099,15.107l0,0
	c-0.909,7.99-1.37,16.143-1.37,24.234c0,8.09,0.461,16.243,1.37,24.234c0.98,8.613,8.33,15.107,17.099,15.107h12.438
	c5.094,23.563,14.703,45.457,27.838,64.766l-136.1,136.099c-13.611,13.61-13.611,35.757,0,49.366
	c6.805,6.805,15.745,10.208,24.684,10.208s17.878-3.402,24.684-10.208L195.675,365.69c19.31,13.134,41.202,22.742,64.767,27.837
	v12.438c0,8.769,6.495,16.12,15.107,17.098c7.99,0.909,16.144,1.37,24.234,1.37c8.09,0,16.244-0.461,24.234-1.37
	c8.612-0.979,15.107-8.33,15.107-17.098v-12.484c21.858-4.701,42.336-13.167,61.048-25.241l8.795,8.795
	c6.199,6.2,15.989,6.806,22.773,1.41c6.293-5.008,12.384-10.447,18.104-16.167c5.723-5.723,11.163-11.814,16.167-18.103
	c5.398-6.782,4.793-16.573-1.409-22.773l-8.796-8.796c12.074-18.712,20.541-39.19,25.241-61.048h12.484
	c8.769,0,16.12-6.494,17.099-15.107c0.909-7.991,1.37-16.144,1.37-24.234C512.001,204.125,511.54,195.972,510.631,187.982z
	 M47.822,490.035c-7.13,7.129-18.73,7.129-25.86,0c-7.129-7.129-7.129-18.73,0-25.859l134.401-134.401
	c7.753,9.443,16.417,18.107,25.86,25.86L47.822,490.035z M494.113,234.571c-0.017,0.145-0.268,0.362-0.582,0.362h-19.324
	c-4.032,0-7.483,2.893-8.184,6.864c-4.306,24.352-13.64,46.923-27.74,67.084c-2.311,3.303-1.917,7.789,0.934,10.641l13.631,13.631
	c0.222,0.222,0.247,0.553,0.155,0.668c-4.617,5.801-9.633,11.42-14.915,16.702c-5.278,5.278-10.897,10.296-16.7,14.914
	c-0.115,0.092-0.447,0.066-0.668-0.156l-13.63-13.63c-2.85-2.851-7.337-3.245-10.641-0.934
	c-20.161,14.101-42.733,23.434-67.085,27.74c-3.971,0.703-6.864,4.152-6.864,8.185v19.323c0,0.315-0.216,0.565-0.362,0.583
	c-14.739,1.677-29.971,1.677-44.711,0c-0.145-0.018-0.362-0.268-0.362-0.583v-19.275c0-4.032-2.893-7.483-6.864-8.184
	c-31.901-5.638-60.719-20.288-83.768-41.187l19.543-19.543c24.97,22.214,57.836,35.732,93.807,35.732
	c77.91,0,141.294-63.384,141.294-141.294S377.692,70.922,299.782,70.922s-141.294,63.384-141.294,141.294
	c0,35.971,13.519,68.838,35.732,93.807l-19.543,19.543c-20.9-23.049-35.548-51.867-41.187-83.768
	c-0.701-3.971-4.152-6.864-8.185-6.864h-19.274c-0.314,0-0.566-0.216-0.582-0.362c-0.839-7.369-1.263-14.891-1.263-22.355
	c0-7.465,0.424-14.986,1.263-22.355l0,0c0.017-0.145,0.268-0.362,0.582-0.362h19.323c4.032,0,7.482-2.893,8.184-6.864
	c4.306-24.352,13.64-46.923,27.74-67.084c2.311-3.304,1.917-7.789-0.934-10.641l-13.631-13.631
	c-0.222-0.222-0.247-0.553-0.155-0.669c4.616-5.8,9.632-11.42,14.914-16.7c5.275-5.276,10.895-10.294,16.7-14.914
	c0.114-0.092,0.445-0.068,0.668,0.155l13.631,13.631c2.85,2.851,7.336,3.245,10.641,0.934c20.161-14.101,42.733-23.434,67.085-27.74
	c3.971-0.703,6.864-4.153,6.864-8.185V18.467c0-0.315,0.217-0.566,0.362-0.583c14.742-1.677,29.971-1.677,44.711,0
	c0.146,0.017,0.363,0.268,0.363,0.583V37.79c0,4.032,2.893,7.482,6.864,8.185c24.352,4.306,46.923,13.64,67.085,27.74
	c3.302,2.311,7.789,1.917,10.641-0.934l13.631-13.631c0.223-0.224,0.554-0.247,0.668-0.156c5.806,4.621,11.425,9.639,16.7,14.915
	c5.282,5.282,10.298,10.9,14.914,16.702c0.092,0.115,0.066,0.445-0.155,0.668l-13.631,13.631c-2.851,2.85-3.245,7.336-0.934,10.641
	c14.101,20.161,23.434,42.733,27.74,67.084c0.701,3.971,4.152,6.864,8.184,6.864h19.323c0.314,0,0.566,0.216,0.582,0.362
	c0.839,7.368,1.263,14.891,1.263,22.355C495.378,219.68,494.952,227.202,494.113,234.571z M175.111,212.216
	c0-68.744,55.927-124.671,124.671-124.671s124.671,55.927,124.671,124.671s-55.927,124.671-124.671,124.671
	S175.111,280.96,175.111,212.216z"/>
<path d="M300.319,141.308c-4.59,0-8.311,3.72-8.311,8.311c0,4.59,3.721,8.311,8.311,8.311c29.34,0,53.21,24.352,53.21,54.285
	c0,4.59,3.721,8.311,8.311,8.311s8.311-3.721,8.311-8.311C370.151,173.117,338.825,141.308,300.319,141.308z"/>
<g>
</g>
<g>
</g>
<g>
</g>
<g>
</g>
<g>
</g>
<g>
</g>
<g>
</g>
<g>
</g>
<g>
</g>
<g>
</g>
<g>
</g>
<g>
</g>
<g>
</g>
<g>
</g>
<g>
</g>
</svg>
